<?xml version="1.0" encoding="utf-8"?>
<!-- Generator: Adobe Illustrator 25.0.1, SVG Export Plug-In . SVG Version: 6.00 Build 0)  -->
<svg version="1.1" id="Layer_14" xmlns="http://www.w3.org/2000/svg" xmlns:xlink="http://www.w3.org/1999/xlink"
     xml:space="preserve">
<style type="text/css">
	.st0{fill:#E6D9DE;}
	.st1{fill:#3D2830;}
	.st2{fill:#483338;}
	.st3{fill:#EEE3E3;}
	.st4{fill:#606066;}
	.st5{fill:#FFFFFF;}
	.st6{fill:#67414B;}
	.st7{fill:#74757B;}
	.st8{fill:#F7F4F5;}
	.st9{fill:#F9E5E1;}
	.st10{fill:#DFA5A8;}
	.st11{fill:#B19A9D;}
	.st12{fill:#947C82;}
	.st13{fill:#D6BDC0;}
	.st14{fill:#7D5056;}
	.st15{fill:#875B61;}
</style>
<path class="st0" d="M92.4,351.3H38.9c0.2-0.5,0.7-0.4,1.1-0.4c4-0.6,8-1.7,11.8-3.2c0.9-0.2,1.5-1.1,1.4-2.1c-0.1-1.4,0-2.9,0-4.3
	c9.1-0.5,18.2-0.3,27.3,0c0,1.5,0,3,0,4.5c-0.1,0.8,0.3,1.6,1.1,1.9c3.3,1.3,6.6,2.3,10,3C91.7,351.1,92.4,350.7,92.4,351.3z"/>
<path class="st1" d="M97.7,265.2c0.2,0.8,0.3,1.6,0.1,2.4c-0.6,0.3-0.5,0.5,0,0.7c0.2,0.2,0.2,0.5,0,0.7c0,0,0,0,0,0
	c-0.6,1.2-0.6,2.6-0.1,3.8l0.1,1c-0.4,0.2-0.4,0.5,0,0.7c0.2,0.5,0.2,1.1-0.1,1.5c-0.4,1.2-0.3,2.5,0,3.6c0.1,1.4,0.1,2.9,0,4.3l0,0
	v0.9c-0.3,0.2-0.4,0.6-0.2,0.8c0,0.1,0.1,0.1,0.2,0.2v0.7c-0.3,0.2-0.3,0.4,0,0.6c0.1,2.7,0,5.5-0.2,8.2c0,0.1,0,0.2,0,0.4
	l-0.1,18.9c0,1.4,0,2.7-0.1,4.1c0,2.7-0.2,3-2.8,3.5c-1.5,0.3-1.8,1-1.7,2.3c0.2,2.4,0.3,4.8,0.3,7.1c-0.1,1,0.5,1.9,1.5,2.3
	c3,1.6,5.8,3.6,8.4,5.9c0.8,0.7,1.7,1.3,2.6,2c0.5,0.7,1.1,1.4,1.9,1.9c2.2,2.1,2.7,4.4,1.5,7c-0.3,0.1-0.8-0.2-1,0.4h-2.4l-0.3-0.6
	c0.7-0.2,1.4-0.5,2.1-0.7s1.4-0.4,1-1.4v-0.7c0.3-1.3-0.7-2-1.4-2.8c-1.4-1.6-3.3-2.7-4.8-4.1c0-0.2-0.3-0.4-0.5-0.3
	c-1.8-1.4-3.5-2.8-5.3-4.1c-2.3-1.8-4.7-2.9-7.6-1.5v-0.7l0,0l0.4-0.2c0.5-0.2,1.1-0.3,1.6-0.4c1.2,0,1.5-0.5,1.4-1.7
	c-0.2-1.4-0.2-2.8-0.3-4.3c-0.1-1.4,0-2.6,0-4c0-0.9-0.3-0.9-1-0.8c-1.8,0.3-3.6,0.4-5.4,0.3c-1.1,0-2.8-0.9-3.4,0s0.1,2.4,0.2,3.7
	l0.2,4.8h-0.8c-0.2-2.4-0.5-4.9-0.5-7.3c0-1.2-0.2-1.8-1.6-2c-0.9-0.1-2-0.4-2.2-1.6c-0.6-5-1.1-10-1.6-14.9
	c-0.8-7-1.6-14.1-2.4-21.2c-0.5-4.2-1-8.4-1.5-12.7c0.4-0.7,0.9,0.1,1.3,0l0.1,2c-0.6,0.5-0.2,0.6,0.2,0.7c0.5,1.5,0.3,3,0.6,4.5
	c-0.3,0.1-0.8-0.1-0.8,0.4c0,0.3,0.5,0.2,0.7,0.3c0.3,2.2,0.6,4.4,0.9,6.6c1,9.3,2.1,18.7,3.1,28c0.1,0.7,0.3,1.2,1,1.3l-0.4,0.4
	c-1.1,1.5-0.6,4.4,0.9,4.8c2.3,0.6,4.7,0.9,7.1,1c0.6,0.1,1.2-0.2,1.5-0.7l0,0c0.2,0.4,0.7,0.7,1.1,0.6l6.2-1.3
	c0.3-0.1,0.6-0.2,0.6-0.5c-0.1-1.4,0.5-2.9-0.3-4.3V315c0.3-0.3,0.4-0.7,0.4-1.1c0.2-3,0.1-6,0-9c-0.1-4.3,0-8.7,0.1-13.1
	c0.2-8.4,0.1-16.9,0.4-25.3c0.4-0.2,0.4-0.5,0-0.7c0-0.7,0-1.4,0-2.1c0.6-0.1,0-1.6,1.2-1c0.2,0.2,0.2,0.5,0,0.7c0,0,0,0,0,0
	C97.3,263.9,97.2,264.7,97.7,265.2C97.6,265.2,97.6,265.2,97.7,265.2z"/>
<path class="st0" d="M108.9,350.9c1.2-2.7,0.7-4.9-1.5-7c-0.7-0.5-1.4-1.2-1.9-1.9c4.7,1.5,9.7,1.7,14.2,3.7
	c0.6,0.3,1.3,0.5,1.3,1.2c-0.1,0.8-0.6,1.4-1.4,1.6c-1.6,0.6-3.3,1.1-4.9,1.5c-1.2,0.3-2.8,0-3.6,1.3h-1
	C109.8,350.8,109.3,351,108.9,350.9z"/>
<path class="st2" d="M53.1,341.3c0,1.4-0.1,2.9,0,4.3c0.1,0.9-0.4,1.8-1.4,2.1c-3.8,1.5-7.8,2.6-11.9,3.2c-0.4,0.1-0.8,0-1.1,0.4
	h-1.3v-0.7c1.5-0.3,3-0.6,4.5-1c2.9-0.7,5.8-1.5,8.6-2.5c2.2-0.8,1.9-2.1,1.2-3.9v-0.6c0.9-2.2-0.5-4.1-0.5-6.6c-1.7,3-2,3.2-4.2,1
	c-1.4-1.5-3.3-2.5-5.3-2.8v-0.6c2.7-0.2,4.6,1.4,6.3,3.2c1.1,1.2,1.5,1.1,2.1-0.5c1.2-3.1,0.5-6.4,0.6-9.6c0.1-0.7,0.2-1.5,0.3-2.2
	c0.2-1.3-0.3-1.6-1.5-1.4c-2,0.4-4.1,0.4-6.1,0.1v-1.1h4.4c0,0.5,0.3,0.8,0.8,0.8c0.5,0,0.9-0.4,0.9-0.9c0,0,0-0.1,0-0.1h1
	c1,0.8,2.2-0.4,3.2,0.4c-0.7,0.4-1.8,0.2-1.8,1.7C51.9,329.8,51.4,335.6,53.1,341.3z"/>
<path class="st3" d="M51.7,343.2c0.6,1.7,1,3-1.2,3.9c-2.8,1-5.7,1.9-8.6,2.6c-1.5,0.4-3,0.6-4.5,1c-1.4,0-2.8,0.2-4.1,0.7h-4.4
	c-0.9-1-2.3-0.7-3.5-1c-0.7-0.1-1.2-0.5-1.6-1.1c-0.4-0.6,0.2-0.6,0.5-0.6l0,0c-0.1,0.3,0.1,0.3,0.3,0.3c2.4,0.6,4.9,0.9,7.4,0.7
	c1.6-0.2,3.4,0.3,4.8-1l0.6,0.4c1.7-0.6,3.6-0.6,5.2-1.5C45.8,346.4,48.9,345,51.7,343.2z"/>
<path class="st1" d="M24.4,348.5c-0.4,0-0.9,0-0.5,0.6c0.4,0.6,0.9,1,1.6,1.1l-0.3,1H23c0.4-0.2,0.2-0.5,0.2-0.8s-0.2-0.8-0.3-1.1
	c-0.5-2.7,1.1-4.5,2.9-6.2c3.6-3,7.4-5.8,11.4-8.5c1-0.6,2.5-0.7,3-2c0.6,0.1,0.4,1.3,1.4,0.9l0.1,0.1v0.7c-1.5,0-3,0.5-4.1,1.5
	c-0.5-0.1-0.7,0.2-0.7,0.7l-2.8,1.8l-0.7,0.7l0,0c-0.3-0.1-0.6,0-0.7,0.3l-1.7,1.4c-0.4,0.3-1,0.3-1.1,0.9c-1.5,1.2-3,2.3-4.3,3.6
	C24.5,346.1,23.8,347.1,24.4,348.5z"/>
<path class="st4" d="M105.2,350.7l0.3,0.6H92.4c-0.1-0.6-0.8-0.2-1-0.6c0-0.2,0-0.3,0-0.5C96,350.6,100.6,351.3,105.2,350.7z"/>
<path class="st4" d="M25.1,351.3l0.3-1c1.2,0.3,2.5,0,3.5,1H25.1z"/>
<path class="st4" d="M33.4,351.3c1.3-0.5,2.7-0.8,4.1-0.7v0.7H33.4z"/>
<path class="st5" d="M108.9,350.9c0.4,0.1,0.9,0,1.1,0.4H108C108.1,350.7,108.6,351,108.9,350.9z"/>
<path class="st1" d="M110.4,177.6c-1.6,1.3-3.1,3-4.9,3.9c-2.8,1.4-5.7,2.9-9,1c-0.8-0.4-1.6-0.8-2.5-1.1c2,8.7,3.2,17.6,3.5,26.5
	c-0.3,0.2-0.3,0.4,0,0.6v1.4c-0.4,0.2-0.4,0.5,0,0.7c0.2,0.2,0.2,0.5,0,0.7c-0.5,0.5-0.5,1.3,0,1.8c0.3,2.1,0.3,4.1,0.2,6.2h-1.2
	v-4.1c0.2-0.1,0.2-0.3,0-0.3c-0.3-2.7-0.4-5.3-0.3-8c0.4-0.3,0.3-0.5-0.1-0.7c-0.4-4.7-0.8-9.4-1.4-14c-0.4-3.5-1.1-7-2.1-10.4
	c-0.5-1.6-1.3-1.6-2.5-1c-0.3,0.2-0.6,0.4-0.9,0.6l-0.7,0.3c-1.3-0.2-2.5,0.5-3.8,0.5c-0.4,0-0.1,0.5-0.2,0.7l-0.1,0.6
	c-0.5-0.5-0.9-1.2-1.8-1c-0.6,0.1-1-0.4-1.4-0.9c-1.1-1-2.3-2-3.5-2.9c-0.8-0.6-1.2-1.6-0.8-2.5c0.1-0.9,1.5-1.4,1-2.4
	s-1.7-0.2-2.4-0.8c0,0,0-0.1-0.1-0.2c0-0.4,0-0.8,0-1.2v-1.3l0.5-0.1c0.1,0.4,0.2,0.8,0.4,1.1s0.5,0.3,0.7,0.3
	c0.3,0,0.5-0.2,0.5-0.5c0,0,0-0.1,0-0.1c-0.4-1.2,0.3-2.4,0.1-3.6c-0.1-0.6,0.4-1.6-0.9-1.7s-1.1,0.9-1.1,1.7H75
	c0-0.7-0.2-1.2-1.1-1.1c-1.9,0.1-3.7,0.2-5.6,0.2c-0.5,0-0.9,0-0.9,0.5c0.1,1.4-0.6,3,0.6,4.2l0.3,1.5l-2,0.6
	c-1-0.8-2.4-0.6-3.2,0.3l-1.7-0.1c-0.2-0.9-0.9-0.8-1.6-0.9c-0.7,0.1-1.3,0.6-2,0.5c-2.8-0.4-5.5,0.3-8.3,0
	c-0.1,0.6,0.2,1.3,0.7,1.6c1.6,1.8,0,2.9-0.7,4.2c-0.4,0.8-0.9,1.7-1.7,1.7c-0.8,0-1.6,0.4-2.2,1.1c-0.3,0.3-0.7,0.4-1.1,0.4
	c-1.2-0.2-1.6,0.6-2.1,1.4c-1.3,2.3-2.8,4.6-4.5,6.6c-0.9-0.7,0.3-1,0.3-1.5c1.1-2,2.7-3.6,3.2-5.9c-0.2-0.7-0.5-1.4-1.5-1.2
	l-0.6-0.1c-0.8-0.8-2.2-0.6-2.5,0.3c-0.3,0.6-0.3,1.2-0.3,1.8c-0.5,2.3-1,4.6-1.4,6.9l-1,0.3c0.1-3.1,0.6-6.2,1.5-9.1
	c-0.9,0-1.8,0.3-2.5,0.9c-2.8,1.4-5.2,0.6-7.3-1.4c-0.1-0.1-0.3-0.2-0.4-0.4c-1.8-2-3.5-4-6.8-3.8c-4.2,0.2-6.9-2.5-8.9-6
	c-3.8-6.5-7.3-13.2-9.3-20.6c-0.1-0.4-0.1-0.8-0.1-1.2c0.3-0.8-0.7-1.9,0.6-2.4l0.2,0.8l0.2,1c0,0.2,0.1,0.4,0.3,0.5
	c-0.1,0.8,0,1.6,0.4,2.3c2.4,7.5,5.8,14.6,10.2,21.1c1.5,2.7,4,3.1,6.7,3.4c0.8,0.3,1.6,0.4,2.4,0.3c0.9,0.3,0.9-0.3,0.8-0.9
	c1.3,1.4,2.7,2.9,4,4.3c0.2,0.3,0.4,0.8,0.8,0.2c1.9-2.2,3.4-4.7,5.5-6.6c1-0.9,0.8-1.5,0-2.3c-0.7-0.6-1.2-1.4-1.6-2.2l0.2-0.7
	c1.4-1.1,1.8-3,1-4.6c-0.9-1.4-2-2.6-3.2-3.7c0.1-0.5-0.1-0.7-0.6-0.8c0-0.1,0-0.2,0-0.3c-0.4-1.5-1.1-2.9-2-4.2l-3.5-6.4
	c0-0.2,0-0.5,0.1-0.8c0.5,0.5,0.8,0,1.1-0.2l12.7-9c0.5-0.3,0.7-0.8,0.6-1.3c-0.1-1.2-0.2-2.5-0.3-3.7v-0.4v-1.4l0.1-0.7
	c0.4-0.3,0.1-0.7,0.3-1h0.6c0,0.2,0.1,0.5,0.1,0.7c0.3,5,0.6,9.9,0.9,14.9c0.1,2.2,0.5,4.4,0,6.5c-0.4,1.4-1.3,2.6-1.7,4
	c-0.6,0.8-0.4,2,0.3,2.7c0.9,1.2,2.1,2.1,3.5,2.8c0.9,0.3,1.6,1,1.8,1.9v0.7c-0.8,0-1.1,0.6-1.3,1.4c2.2-0.1,4.3-0.2,6,1.4l0.5-1.4
	c0.4,0,0.7,0.2,0.9,0.6c0,0.8-0.5,1.7,0.8,2.1c0.2-0.8,0.8-1.4,0.4-2.3l0.7-1l0.7,0.1c0.1,0.2,0.4,0.2,0.6,0.1
	c1.4,0,2.8,0.4,4.2,0.1l0.7-0.4c0.7,0.7,1.8,1,2.8,0.6h11.3l1.9-0.3c1.1,0.1,2.3,0.1,3.4-0.2c1.5-0.4,3.1-0.4,4.7-0.8
	c2.9-0.6,5.9-0.6,8.4-2.5c4-3,5-3.5,3-8.4l-0.1-0.1c0.2-0.2,0.1-0.3,0-0.5c-0.8-1.9-0.2-3.9-0.1-5.9c0.1-6.2,0-12.5,0.4-18.7
	l0.6,0.1l0,0c-0.1,0.1-0.1,0.2,0,0.2c0,2.3,0.1,4.7,0.2,7c0,0.7,0.4,1.4,1.1,1.8c4.9,3.5,9.8,7.1,14.7,10.6l0.1,1.5
	c-0.8,2.3-2.5,4.2-3.4,6.5c-1.1,2.6-2.8,5-4.9,7c-1.6,1.6-1.6,3-0.2,5l0.5,0.7c-1,1.5-2.1,2.8-3.5,4c-0.8,0.6-0.3,0.9,0.1,1.3
	l5.2,5.7c0.5,1.4,1.2,1.5,2.3,0.6c0.8-0.7,1.7-1.4,2.6-2l0.4-0.3l0.1-0.1l0.2-0.3l1-0.8C110.4,176.9,110.4,177.3,110.4,177.6z
	 M62.4,169.5L62.4,169.5c0,0.7,0.5,0.6,1,0.7v0l0.4,0.2c1.2-0.5,3.4,0.2,2.9-2.4c0.3-0.2,0.3-0.6,0.1-0.8c0,0-0.1-0.1-0.1-0.1
	c-0.6-1-3.8-1.4-4.9-0.5c-0.1,0.1,0,0.3-0.1,0.5c-0.6,1.4-0.7,2.9-0.3,4.4c0.1,0.5,0.5,0.8,1,0.8H66c0.3,0,0.6-0.1,0.6-0.4
	c0-0.3-0.3-0.5-0.6-0.5c-0.8-0.1-1.6-0.1-2.3,0c-2,0.3-2,0.3-1.8-1.9L62.4,169.5z M80.4,166.1c0.1-0.9-0.5-0.9-1.1-0.7
	c-1.4,0.6-0.1,1.5-0.1,2.4l1.2-1.4l3.5-1.5C82.5,164.7,81.2,164.8,80.4,166.1L80.4,166.1z M84.8,164.7l-0.1,0.1l0.2,0.2
	c1.4-0.1,2.6,1,4,1c-0.7-2.4-0.7-2.4-3-1.8C85.5,164.4,85.1,164.3,84.8,164.7L84.8,164.7z M80.3,176.2c0.3,1.1,1.1,0.6,1.8,0.7
	c-0.5,0.4-1.1,0.8-1.6,1.3c-0.3,0.3-1.2,0.3-0.7,1.1c0.3,0.6,0.9,0.6,1.5,0.3c1.8-0.6,3.5-1.4,5.2-2.2l0.4,0.4
	c-1.2,0.8-2.4,1.5-3.8,2c-0.4,0.2-1.1,0.4-1,1s0.8,0.5,1.3,0.4c2.3-0.3,4.5-1,6.6-1.9c1-0.5,2.2-0.3,3,0.3c1.8,1.1,3.6,1.9,5.6,2.5
	c1.1,0.4,2.3,0.2,3.3-0.5c0.8-0.5,1.1-1,0.3-1.9c-1.7-1.8-3.3-3.6-5-5.5c-2.5-3-5.7-5.4-9.2-7.1c-4-2-7.2-1.1-9.9,2.5
	c-0.2,0.2-0.4,0.4-0.3,0.7s0.5,0.4,0.9,0.4c1.6,0.2,2.7-0.9,3.9-1.6c1.7-1,3.2-0.1,4.7,0.2c-0.5,0.5-1.1,0.9-1.8,1.1
	c-2.5,0.9-4.7,2.4-6.5,4.4c-0.6,0.6-1.7,1.3-1.1,2.1S79.5,176.4,80.3,176.2L80.3,176.2z M36.8,169.8c0.4,0.8-0.4,0.9-0.7,1.2
	c-2.6,2.4-5,5.1-7.1,8c-0.4,0.6-1.2,1.2-0.8,1.9c0.5,0.9,1.6,1.4,2.6,1.3c1.5-0.2,3-0.7,4.3-1.7c1.8-1.4,3.5-1.2,5.5-0.5
	c1.2,0.5,2.5,0.9,3.8,1c0.5,0,1,0.1,1.1-0.5s-0.3-0.7-0.6-0.9c-1.1-0.7-2.3-1.3-3.4-2s-2.7-1.1-3.7-2.3c1,0.2,1.9,0.6,2.8,1
	c2.3,1.1,4.6,2.1,6.9,3.2c0.4,0.2,0.9,0.3,1.2-0.2s-0.2-0.8-0.6-1c-2.2-1.9-4.6-3.6-7.2-5c-0.5-0.2-1.5-0.3-1.2-1.1s1,0,1.5,0.2
	c2.8,0.9,5.1,2.8,7.7,4.1c0.3,0.1,0.7,0.6,1.1,0.2s0-0.8-0.2-1.1c-0.5-0.8-1.1-1.5-1.8-2.1c-2.3-1.8-4.8-3.2-7.4-4.3
	c3.2-1.2,3.2-1.2,5.8,0.5c0.6,0.3,1.2,0.6,1.9,0.9c0.5,0.2,1,0.5,1.4,0s0-1.1-0.4-1.5c-3.3-3.8-6.1-4-10-1c-0.4,0.4-0.9,0.8-1.3,1.1
	C37.6,169.5,37.4,170.3,36.8,169.8c1.5-1.7,3-3.6,4.2-5.5c0.7-1.2,0.5-1.8-0.6-2.2c-1-0.5-1.9-1.2-2.6-2c-2.1-2-2.3-3.3-0.9-5.9
	c0.6-1,1-2.2,1.2-3.4c0.3-3.9-0.2-7.8-0.4-11.8c-4.1,3-8.1,5.9-12.1,8.7c-1.1,0.8-1.2,1.4-0.5,2.5c1.1,1.6,2.1,3.3,2.9,5.1
	c1.2,2.5,2.7,4.8,4.6,6.8c1.4,1.6,1.9,3.9,0.6,5.6s0,2.4,0.8,3.3c1,1.1,1.4-0.4,2-0.7C36.3,170.3,36.4,169.8,36.8,169.8L36.8,169.8z
	 M93.5,137.7c0.1,0.6,0.2,1.1,0.2,1.7c-0.2,5.5-0.8,11,1,16.3c0.4,1.2,0.1,2.6-0.7,3.6c-1.1,1.3-2.4,2.3-3.9,3.1
	c-0.5,0.3-1.2,0.6-0.8,1.2c0.9,1.7,1.1,3.7,3,4.9c1.2,0.8,2.3,1.7,3.3,2.7c1,1.1,1.7,0.9,2.6-0.1c1.1-1.2,2.3-2.2,1.1-4.2
	c-0.8-1.5-0.5-3.5,0.8-4.6c2.9-2.8,4.6-6.4,6.5-9.9c0.6-1.2,1.9-2.3,1.8-3.4s-1.9-1.6-2.9-2.4C101.6,143.7,97.7,140.8,93.5,137.7
	L93.5,137.7z M56,171.5h1.9c1.5,0,2.2-0.5,2.1-2.2c-0.1-2.8,0-2.8-2.7-2.9c-0.4,0-0.8-0.1-1.2-0.1c-3,0-3,0-3.1,3
	c0,2.2,0,2.2,2.1,2.2H56z M52.3,168.5L52.3,168.5c0.1-0.6,0.1-1.2,0.1-1.9c0-0.3,0.1-0.8-0.4-0.8c-0.4-0.1-0.7,0.2-0.8,0.5
	c-0.4,1.3-0.6,2.7-0.5,4.1c0,0.5,0.5,0.8,1,0.8c0,0,0,0,0,0c0.7,0,0.6-0.5,0.6-1S52.3,169.1,52.3,168.5L52.3,168.5z M44.5,170.2
	c0.2,0,0.4,0,0.3-0.3c0-0.1-0.1-0.2-0.2-0.2c-0.1,0-0.3,0.1-0.4,0.2L44.5,170.2z"/>
<path class="st1" d="M123.1,92.4c0,0.6,0.4,1.2-0.3,1.7c-0.2,0-0.2,0.1-0.1,0.3c0.3,0.2,0.2,0.5,0.1,0.7c-0.6,0.6-0.2,1.3-0.4,1.9
	v0.1c-0.3,0.3-0.5,0.7-0.6,1.2c-1.2,4.3-6.8,7.1-10.7,5.7c-0.4-0.2-0.9-0.1-1.2,0.3c-2.5,2-5.5,3.1-8.7,3.2c-0.4,0-1.1-0.2-1,0.7
	c-0.6-0.1-1.1-0.5-1.7-0.3c-1.1-0.2-1.4-2-3-1.2c-3.9,2.1-8.6,1.9-12.3-0.6c-0.3-0.3-0.7-0.4-1.1-0.4c-0.5-0.7-1.2-1.1-1.5-2
	l-0.3-1.4c1.7,0.2,3.4-0.2,4.9-1c0.2-0.1,0.6-0.2,0.5-0.5c-0.1-0.3-0.3-0.5-0.6-0.5c-2.2,0.3-4.2-0.8-6.2-1.5
	c-4.2-1.3-7.3-3.6-7-8.6c0-1.6,0-3.3-0.2-4.9c0-0.6-0.3-1.1-0.8-1.4c2-0.7,4-1.3,6-2c3.9-1.5,7.6-3.3,10.1-6.8
	c1.3-1.9,2.4-3.9,3.6-5.9c0.3,0.6-0.3,1.7,1,1.5c2.5-0.2,4.9-0.9,7.1-2c5-2.8,5.8-9.6,3.1-13.1c-2.1-2.7-5-2.4-6.4,0.5
	c-0.6,1.1-0.6,2.5-1.5,3.4l-0.5-0.5v-0.4c0.4-0.2,0.3-0.4,0.1-0.7c0.6-1.3,1-2.7,1.3-4.1c0-0.3-0.2-0.3-0.3-0.1h-2.7
	c-0.9-0.8-1.9-1.3-3.1-1.6c0.2,1.6,2,1.2,2.5,2.4c-0.9,1.2-1.3,3-3.2,3.1c0-3.1-1.4-5.1-4.4-5.8c1.7,1.7,2.4,4.1,1.9,6.4
	c-1-0.5-2.3-0.2-2.9,0.8c-0.9,1.1-1.8,2.5-3.6,1.6l-0.8-0.6c0-0.5-0.3-1-0.8-1c-0.1,0-0.1,0-0.2,0c-0.5-0.7-1-1-1.3,0.1
	c-0.1,0.3,0,0.7-0.4,0.9c-1.2-2.4-0.7-4.9,0-7.6c-1.1,0.6-1.4,1.8-2.7,2.1c0.4-2,1.7-3.7,3.6-4.6c-0.4-0.4-1.1-0.1-1.2-0.7
	c1.9-1.5,4.1-1.4,6.3-1.4c-1.2-0.6-2.4-1-3.5-1.5c-3.8-1.6-7.2-3.9-10.2-6.7c0.1-0.7-0.4-1.1-0.8-1.6s-1.1-1.3-0.3-2.1
	c1,1.4,2,2.8,3,4.2c1.8,2.2,2.7,2.3,5.2,1.1c1.1-0.5,1.2-1,0.6-2c-1.2-2.1-2-4.4-2.6-6.7l0.7-0.1c1,2.3,2,4.7,3,7
	c0.2,0.7,0.9,1.1,1.6,1c2.2-0.2,4.3,0.4,6.1,1.7v0.4l-6.6-0.5l2,2.2c5,5.3,10.7,8.9,18.3,8.2c1,0,2.1,0.3,2.9,1
	c0.5,0.2,0.8,0.7,1.4,0.7c2.3,3.1,2.6,6.6,1.8,10.3c-0.5,0.4-0.9,1-1,1.7c-1.1,0.8-1.6,2.2-1.4,3.5H101c-0.1-0.3-0.2-0.5-0.3-0.8
	c-1.8,0.7-3.6,1.7-5.2,2.8c0,0.1,0,0.2,0,0.3c0.1,4.3-0.4,8.6-0.7,12.9c-0.1,0.6-0.2,1.2-0.3,1.7c-0.3,0.6-0.4,1.3-0.5,2
	c-0.2,0.5-0.4,1.1-0.6,1.6c-1.8,4.1-4.4,7.3-9.3,7.7c-1.6-0.9-3.6-1.1-4.4-3.5c1,0.6,1.8,1.1,2.6,1.5c2.5,1.5,4,0.8,4.3-2.1
	c0.1-1.4,0.4-2.8,0.5-4.2c0.5-4.6,1-9.2,1.5-13.8c1,0.2,0.7,0.9,0.6,1.5c-0.1,0.6-0.2,1.2-0.2,1.9c-0.3,3.1-0.4,6.3-0.9,9.4
	c-0.4,2.4-0.6,4.8-0.9,7.1c3.2-4,3.9-8.9,5.4-13.5c-0.3,3.9-1.1,7.8-2.6,11.4c1.4-1.1,2.5-2.6,3-4.3c1.5-5.6,1.8-11.3,2-17
	c0.1-0.3-0.1-0.7-0.4-0.9c-0.5-0.3-3.8,0.1-4.1,0.6c-0.6,1.2-1.2,2.6-1.8,3.8c-0.3,0-0.6,0.2-0.7,0.4c-2.5,3.3-6,5.7-10,6.9h-0.8
	c-0.9,0.4-1.9,0.8-2.9,1c-0.7,0.1-0.9,0.7-0.9,1.3c0,2.1-0.1,4.2,0.1,6.2c0.1,1.6,0.4,3.4,2,4.2c2.7,1.4,5.5,2.6,8.6,2.5h0.6
	c0,0.1,0,0.2,0,0.3c0.1,0.9,0.9,0.8,1.3,0.6c1.2-0.6,2.6-0.9,3.6-1.9c0.2-0.2,0.3-0.8,0.7-0.5s0,0.7-0.1,1c-2.2,2.7-4.6,5.1-8.4,5.3
	c1.3,2.2,2.8,2.9,5.1,2.4c1.1-0.2,2.2-0.5,3.3-0.7c-0.2,1.5-1.9,0.6-2.7,1.7c2.3,0.1,4.3,0.3,6.3-0.4c1.5-0.4,2.8-1.4,3.7-2.7
	c2.4-3.9,2-8.2,1.4-12.5c0-0.5,0-0.9,0-1.4c1.4,1.9,1.1,4.1,1.4,6.2c-0.1,2.9-0.1,5.8-1.9,8.2c-0.2,0.3-0.4,0.6,0,0.9
	s0.6,0.1,0.9-0.1c3.3-1.7,5.5-4.8,6.1-8.5c0.3-1.4,1.4-2.8,0.4-4.4c0-0.8,0-1.6,0-2.4l0.7,0c-0.2,1.5-0.1,3,0.3,4.5
	c-0.2,0.5-0.3,1-0.4,1.5c-0.5,4.7-2.3,8.5-7.1,10.2c-0.2,0-0.3,0.2-0.3,0.4c0,0,0,0.1,0,0.1c4.3,0.2,8.5-1.4,11.6-4.5
	c0.8-0.6,1.4-1.5,1.7-2.5l0.3-0.7l0,0c1.4-1.6,1.6-3.6,1.7-5.5c0-1.1,0.2-2.1,0.6-3.1c0,0.5,0,1.1,0,1.6c0.3,2.8-0.2,5.6-1.5,8.1
	c-0.5,1-1.1,1.9-1.7,2.8c0.5,1.7,1.6,1.2,2.7,0.8c1.7-0.1,3.3-0.8,4.5-2c0.9-1.3,1.6-2.6,2.1-4.1c0.6-1.6,0.5-3.3,0.9-5L123.1,92.4z
	 M79.6,46.2c0.1,0.1,0.2,0.2,0.3,0c0,0-0.1-0.1-0.2-0.2c-0.4-0.5-0.7-1-1.1-1.5c-2-2.4-2-2.3-5.1-1.3C75.6,44.4,77.3,45.8,79.6,46.2
	z"/>
<path class="st1" d="M2.2,140.7c2.8-3.7,5.8-7.2,9.2-10.4c5.3-5.4,10.5-10.9,15.8-16.2c2-2,4.2-3.8,6.2-6.1
	c-3.6-0.5-7.1-0.4-9.7-3.1c0-0.3,0.1-0.6,0.4-0.8c2.2,2,4.8,2.4,8.1,1.9c-1.5-0.7-2.9-1.7-3.9-3c-1.6-2.1-3-4.3-2.5-7.1h0.6
	c0.3,4.4,3.1,8.3,7.1,10c0.4,0.1,0.9,0.5,1.2,0s-0.1-0.9-0.4-1.2c-0.9-1-1.5-2.3-1.8-3.6h0.8c1.4,2.3,2.7,4.7,5.5,5.6
	c2.4,0.7,4.8,1.5,7.2,0l0.3-0.3c1.2,0.1,2.3-0.3,3.2-1c0.3-0.2,0.7-0.6,0.7-0.9s-0.6-0.5-0.9-0.5c-1.5-0.3-2.8-0.9-4-1.8
	c-1.6-1-2.9-2.5-3.6-4.2c2.6,1.5,5,3.3,8.1,1.5c0.4-0.1,1-0.2,0.9-0.7s-0.6-0.3-0.9,0c-1.8,0.2-3.6,0-5.2-0.7
	c-2.5-1-4.7-2.4-5.5-5.1c1,0.1,1.5,1,2,1.7c0.7,0.9,1.7,1.5,2.7,1.7c-2.3-4.4-4-8.7-3.6-13.4c0.1,0.2,0.2,0.4,0.2,0.6
	c0.6,3.8,1.7,7.5,3.4,10.9c0.2,0.4,0.3,0.9,0.8,0.7s0.3-0.7,0.2-1.1c-1.3-6-2.2-12.2-2.8-18.3c-0.2-1.4-0.6-3.5-2.5-3.8
	c-1.6-0.3-3-1-4.7-1c0-0.3-0.3-0.6-0.6-0.6c0,0,0,0,0,0l-3.8-3.1c-0.1,0-0.2,0-0.2,0c-0.4-1.2-0.9-2.4-1.5-3.5l-0.4-0.4
	c-0.6-4.4,1.5-8.4,2.2-12.5c0.9-5,2.5-9.8,3.8-14.7h0.7c-1,5.5-2.8,10.8-4,16.7c3-2.3,5.9-4.2,8.4-6.5c4.3-4.1,7.7-9.2,9.9-14.8
	c0.9-2.2,1.8-4.5,3.6-6c1.2-1,1.9-2.6,1.9-4.2c0.1-1.7,0.4-2.2,1.3-3c-0.8,3.6-0.7,7.2-0.7,10.7c0,3.9,1.1,7.8,3.1,11.1
	c0.6,1,1.2,2.1,2.4,2.5l0,0c0,0.2,0.1,0.3,0.3,0.3c0,0,0.1,0,0.1,0l0,0l0.4,0.5c1.2,0.6,2,1.8,3.1,2.6c-0.7,0-1.4-0.2-1.9-0.6
	c-5-2.6-6.9-7.3-8.1-12.4c-0.5-2.4-0.3-4.9-0.4-7.7c-1.4,1.2-2.6,2.7-3.2,4.5c-1.6,3.9-3.5,7.7-5.8,11.3l-0.2,0.3l0.4-0.1
	c2.2-0.8,4.5-1,6.8-0.6c1,0.1,1.9,0.6,2.6,1.3c0.3,0.2,0.3,0.6,0.2,0.9c-0.2,0.2-0.5,0.3-0.8,0.2c-0.5-0.1-1-0.2-1.5-0.3
	c-2.5-0.6-5.1-0.7-7.7-0.3c-0.7,0-1.3,0.4-1.8,0.9c-1.1,1.7-2.6,3.2-4.3,4.4c-1.8,1.2-1.9,2.8-1.8,4.6c0.2,3.1,1.3,5.9,1.7,8.9
	c-0.1,0.2,0,0.4,0.1,0.5c0,0,0,0,0,0v0.6h-0.6l-0.9-2.7c-0.3-1.3-0.6-2.6-1-3.8c-0.7-2.2-2-2.6-4-1.5c-0.9,0.5-1.6,1.3-2,2.3
	c-2.6,6.8,1.9,12.6,8.9,13.7c0.5,0.1,0.8-0.2,0.8-0.7h0.5c1.1,2.6,2.7,5,4.6,7.1c3.1,3.2,7.1,4.6,11.2,5.9c1.7,0.5,3.5,0.4,5,1.4
	c-0.7,2.1,0.2,4.2,0,6.3c-0.1,0.3-0.2,0.5-0.2,0.8c0.2,3.6-1.6,5.5-4.8,6.7c-3.4,1.3-6.7,2.9-10.9,2.7c0.7,0.8,1.7,1.3,2.7,1.5
	c3,0.6,5.9,1.6,8.7,2.8c0.3,0.2,0.6,0.4,1,0.3l0,0c0.2,0.3,0.4,0.4,0.7,0.1c0.5-0.2,0.9,0.2,1.4,0.3v0.8c-2.1-0.2-4.1-0.7-5.9-1.6
	c-1.7-0.9-2.6-0.4-3.5,1l-0.2,0.4c-0.3,0.1-0.5,0.1-0.8,0.2c-3.2,1.4-6.7,2.7-9.9,1.1c-4-2-5.8,0.4-7.9,2.8
	c-0.1,0.1-0.1,0.2-0.1,0.3l-0.8,0.8l-0.1,0.1c-3.9,3.5-7.3,7.4-10.9,11.1c-5.8,5.9-11.8,11.5-16.9,18.1
	C2.9,141.2,2.4,141.2,2.2,140.7z M35.8,51l-1,0.4c-1.3,0.4-2.2,1.4-2.5,2.7l1.7-1c0.6,0,1.3,0.3,1.8-0.4c0.7,0.5,0.7,0,0.7-0.5
	C36.5,51.3,36.4,51.1,35.8,51L35.8,51z M55.1,97.3L55.1,97.3c0.5-0.1,1-0.2,1.5-0.4c1.8-0.9,3.3-1.6,3.5-4.2
	c0.1-2.2-0.6-4.4,0.1-6.6c0.1-0.4-0.1-0.7-0.4-0.8c-0.1,0-0.1,0-0.2,0c-1.1-0.2-2.3-0.8-3.1-0.5c-0.9,0.3,0.3,1.6,0,2.5h-1
	c0-0.7,0-1.5,0.1-2.2c0.1-0.6-0.1-0.8-0.6-0.9c-3.1-0.6-6-2-8.4-4.1c-1-0.9-1.7-2.1-3.2-2.7c0,1.6,0.2,3.1,0.5,4.7
	c0.6,4.5,1.5,9,2.5,13.5c0.5,1.9,1,2.3,2.9,1.9c1.4-0.3,2.5-1.3,3.8-1.8c0.3,1-1.1,1.8-0.2,2.4c0.7,0.5,0.8-1,1.5-1.1l0.4,0.4
	C54.9,97.5,55,97.5,55.1,97.3L55.1,97.3z M45.4,96.1l-0.1-0.3c0,0.1-0.1,0.2-0.1,0.3s0.1,0.2,0.1,0.3L45.4,96.1z M31.4,54.2
	L31.4,54.2L31.4,54.2L31.4,54.2z"/>
<path class="st2" d="M24,104.2c-0.3,0.2-0.4,0.5-0.4,0.8c-0.9-0.9-2.2-1.2-3.3-0.7c-2.7,0.7-5-0.4-6.8-2.3c-3.8-4-4-8.7-2.9-13.7
	c1.1-4.7,2.9-9.2,5.6-13.2c5.1-8.3,7.5-17.3,8.3-27c0.6-7.5,1.4-15.1,4.3-22.2c3.2-8,8.7-15,15.8-19.9c2.8-1.9,5.9-3.3,9.2-4
	l0.7-0.2c0.7-0.1,1.4-0.8,2.2-0.2c0.1,0.8-0.5,0.7-1,0.8c-6.1,1.1-11.7,4.1-16,8.6c-5.7,5.7-9.8,12.8-11.7,20.7
	c-1.6,6.3-2,12.7-2.7,19.1c-0.5,4.4-1.2,8.7-2.3,13c-1.6,4.1-3.5,8-5.7,11.9c-2.3,4.2-4.6,8.4-5.5,13.2c-0.7,4-0.8,8,1.6,11.5
	c0.7,1,1.7,1.7,2.8,2.2c0.3,0.1,0.6,0.4,0.9,0s0-0.6-0.2-0.8c-1.7-1.8-1.8-4.1-1.8-6.4c0-2.8,0.6-5.7,1.6-8.3c0.1-0.3,0.1-0.7-0.1-1
	c0.6-1.9,1.4-3.7,2.3-5.5c0.7,2.1-0.1,4-0.9,5.8c-0.2,0.4-0.6,1,0,1s0.6,0.1,0.5,0.5c-0.8,3.8-0.2,7.7,1.6,11.1
	c0.3,0.5,0.4,1.2,1.2,1.4C21.8,102,23.1,102.9,24,104.2z M17.4,88.7c-0.6,0.9-0.9,1.9-1,2.9c-0.6,2.9-1,5.9,0.7,8.7
	c0.5,1.2,1.5,2.1,2.7,2.5c0.4,0.1,0.8,0.1,1.1-0.1c0.4-0.4-0.1-0.7-0.4-1c-2-2.7-3.1-6-3-9.4C17.7,91,17.6,89.8,17.4,88.7z"/>
<path class="st2" d="M34.4,190.9l1-0.3c-0.1,1.9-0.3,3.7-0.5,5.6c-1.1,13.9-0.8,27.9-0.7,41.8c0.1,15.8,0.9,31.5,1.5,47.3
	c0.2,4.3,0.3,8.5,0.5,12.8c-0.7,0.8,0-2.6-1.1-0.4c-0.2-5.3-0.5-10.6-0.8-16c-0.5-11.7-1-23.5-1.3-35.2c-0.2-7.1-0.1-14.1-0.2-21.2
	c-0.1-8.4-0.1-16.8,0.5-25.2C33.5,197,33.8,194,34.4,190.9z"/>
<path class="st2" d="M98.6,108.1c0.6-0.2,1.1,0.2,1.7,0.3c5.6,5.7,11.2,11.4,16.7,17.2c3.3,3.6,6.8,7,10.2,10.6
	c2.2,2.2,4,4.7,5.3,7.5c1.2,2.8,0.5,5.8-0.5,8.5c-2.4,7.2-5.8,14.1-10,20.4c-2.3,3.5-5.8,4.4-9.6,4.8c-0.7-0.1-1.4,0-2,0.2
	c0-0.3-0.1-0.7-0.4-0.8c0.2-0.4,0.5-0.8,0.9-0.5c1.6,0.7,3.2,0.1,4.7-0.3c2-0.6,4.2-1.2,5.1-3.6c0.8-1.4,1.7-2.7,2.5-4.1
	c3.6-6.3,6.9-12.8,8.3-20l0.2-0.7c0.2-0.3,0.1-0.7-0.1-1c0.2-0.7,0.1-1.4-0.2-2c-1.5-2.8-3.3-5.5-5.5-7.9
	c-4.9-5.2-9.9-10.3-14.9-15.5c-3.1-3.2-6.2-6.4-9.3-9.5C100.9,110.1,99.6,109.2,98.6,108.1z"/>
<path class="st2" d="M60.3,1.5c0.7,0.7,1.8,0.7,2.6,0.2c4.2-2.1,8.8-1.9,13.2-1.1c6.2,1.1,11.9,3.9,16.5,8.2
	c7.8,7.2,12.3,16.1,14.4,26.4c1.6,8.1,2,16.5,3.8,24.6c0.3,1.4,0.8,2.9,1.2,4.3c-1,0.7-0.1,0.9,0.4,1.1l0.2,0.6
	c-0.4,1.4,0.9,2.5,0.6,3.9c-1-1.3-1.2-2.9-2-4.2c-0.3-0.9-0.5-1.9-0.8-2.8c-1.6-6.2-2.2-12.6-3.1-18.9c-1-9.1-2.9-17.9-8-25.6
	c-6-9.2-14.1-15.3-25.3-16.7C70.2,0.9,66.4,0.6,63,2.8c-0.6,0.1-1.1,0.6-1.7,0.4c-1-0.5-2-0.9-3.1-1.1l-0.1-0.7h0.6
	c0.1,0.1,0.4,0.1,0.5,0C59.6,1.3,60,1.4,60.3,1.5L60.3,1.5z"/>
<path class="st3" d="M58.2,2.1c1.1,0.2,2.1,0.6,3.1,1.1c-0.7,1-1.6-0.2-2.3,0.3h-2.9c-0.3-0.3-0.5-0.2-0.7,0.1
	C46.8,5.3,40.9,10.8,36,17.7c-2,2.2-3.5,4.7-4.4,7.5c-1.6,3.1-2.8,6.5-3.5,10c-1.2,5.1-1.3,10.3-2.4,15.3h-0.5
	c0.7-6.4,1.2-12.8,2.7-19.1c1.9-7.8,6-15,11.7-20.7c4.3-4.5,9.9-7.5,16-8.6c0.5-0.1,1.1,0,1-0.8l0,0c-0.1,0.7,0.4,0.6,0.8,0.6
	L58.2,2.1z"/>
<path class="st0" d="M25.8,343.2c-1.7,1.7-3.3,3.5-2.9,6.2c0.1,0.4,0.2,0.8,0.3,1.1c-3.4,0.3-6.9-0.4-10-1.8
	c-0.7-0.3-1.5-0.8-1.6-1.7s0.9-1,1.5-1.3c3.6-1.8,7.7-2.2,11.6-3C25.2,342.5,25.6,342.8,25.8,343.2z"/>
<path class="st2" d="M96.6,219.3h1.3c-0.1,4.3,0,8.6-0.1,12.9c-0.1,7.2,0.3,14.3,0.1,21.5c-0.1,3.1,0.2,6.1-0.2,9.2
	c-1.2-0.6-0.6,0.9-1.2,1c-0.1-0.2-0.2-0.5-0.3-0.7c0.2-4.1,0.1-8.2,0.2-12.3c0.1-5,0-10,0.1-14.9C96.7,230.4,96.6,224.8,96.6,219.3z
	"/>
<path class="st1" d="M35.2,297.7c1.2-2.2,0.5,1.1,1.1,0.4c0,0.6,0.1,1.3,0.1,1.9c0.1,6.3,0.3,12.5,0.4,18.8c0,0.8-0.2,1.8,1,2.1
	c0.8,0.6,1.8,0.9,2.8,0.8c0.1,1.1-0.6,1-1.3,1c-3.4-0.7-3.7-1.2-3.5-4.5c0.4-0.4,0.4-0.7,0-1v-0.7c0.4-0.2,0.4-0.5,0-0.7
	C35.3,309.7,35.1,303.7,35.2,297.7z"/>
<path class="st2" d="M39.3,322.6c0.7,0,1.4,0.1,1.3-1c0.7,0,1.4,0.2,2,0.5v1.1c-0.9-0.1-1.5-0.1-1.4,1.1c0.1,1.2,0.1,2.3,0.1,3.4
	c0,1.9-0.4,3.8,0.2,5.7c-0.9,0.4-0.8-0.8-1.4-0.9c-0.4-2.8,0-5.6,0-8.4C40.2,323.5,39.9,322.9,39.3,322.6z"/>
<path class="st6" d="M118.6,78c-0.4-0.3-0.9-0.4-1.4-0.3l-4-7.6c0.3-0.2,0.1-0.3-0.1-0.3l0,0c0.3-1.4-1-2.5-0.6-3.9
	C114.3,69.9,116.9,73.7,118.6,78z"/>
<path class="st2" d="M2.2,140.7c0.2,0.5,0.7,0.5,1.1,0.5c-1,1.8-2.3,3.6-2.1,5.9c-1.3,0.5-0.4,1.6-0.6,2.4
	C-0.6,146.4,0.1,143,2.2,140.7z"/>
<path class="st2" d="M97.6,272.8c-0.5-1.2-0.5-2.6,0.1-3.8C97.8,270.3,97.8,271.6,97.6,272.8z"/>
<path class="st2" d="M97.6,279.8c-0.4-1.2-0.4-2.4,0-3.6C97.8,277.3,97.8,278.5,97.6,279.8z"/>
<path class="st2" d="M97.7,265.2c-0.5-0.5-0.4-1.3,0.1-1.8C97.7,264.1,98,264.7,97.7,265.2z"/>
<path class="st2" d="M97.7,213.1c-0.5-0.5-0.5-1.3,0-1.8C97.7,211.9,98.1,212.5,97.7,213.1z"/>
<path class="st6" d="M112.4,65.2c-0.5-0.2-1.4-0.4-0.4-1.1L112.4,65.2z"/>
<path class="st2" d="M97.6,286c-0.3-0.2-0.4-0.5-0.2-0.8c0-0.1,0.1-0.1,0.2-0.2C97.8,285.3,97.8,285.7,97.6,286z"/>
<path class="st2" d="M35.8,317.1c0.4,0.3,0.5,0.7,0,1V317.1z"/>
<path class="st2" d="M97.6,208.6c-0.3-0.2-0.3-0.4,0-0.6C97.7,208.1,97.7,208.4,97.6,208.6z"/>
<path class="st2" d="M97.6,210.7c-0.4-0.2-0.4-0.5,0-0.7V210.7z"/>
<path class="st2" d="M97.5,287.3c-0.3-0.2-0.3-0.4,0-0.6C97.7,286.9,97.7,287.1,97.5,287.3C97.5,287.3,97.5,287.3,97.5,287.3z"/>
<path class="st2" d="M97.8,268.4c-0.6-0.2-0.6-0.4,0-0.7V268.4z"/>
<path class="st2" d="M35.8,315.7c0.4,0.2,0.3,0.5,0,0.7V315.7z"/>
<path class="st2" d="M97.6,274.6c-0.4-0.3-0.3-0.5,0-0.7V274.6z"/>
<path class="st2" d="M97.3,295.9v-0.4c0,0.1,0,0.2,0,0.2C97.4,295.8,97.3,295.9,97.3,295.9z"/>
<path class="st2" d="M97.6,284L97.6,284h0.1H97.6z"/>
<path class="st5" d="M53.1,341.3c-1.7-5.7-1.2-11.5-1.1-17.2c0-1.5,1.1-1.3,1.8-1.7c2.2,0,2-1.6,2.1-3.1c0.7-9,1.6-17.9,2.3-26.9
	c0.8-9.8,1.4-19.5,2.1-29.3c0.8-10.3,1.7-20.6,2.6-31c0.5-6,1-11.9,1.6-17.9h0.2c1.8,14.1,3.5,28.3,5.2,42.4l0,0.3l0,0.7
	c-0.3,0.5,0,0.9,0,1.4c-0.2,0.3-0.2,0.5,0.1,0.8c0.5,3.6,0.6,7.2,1.4,10.8c-0.1,0.5-0.1,1.1,0.1,1.6c0.5,4.2,1,8.4,1.5,12.7
	c0.8,7.1,1.6,14.1,2.4,21.2c0.5,5,1.1,10,1.6,14.9c0.1,1.2,1.3,1.5,2.2,1.6c1.3,0.2,1.5,0.9,1.6,2c0,2.5,0.3,4.9,0.5,7.3
	c0.3,3.2-0.9,6.2-1.1,9.3C71.3,340.9,62.2,340.8,53.1,341.3z"/>
<path class="st2" d="M80.4,341.3c0.2-3.1,1.5-6.1,1.1-9.3h0.8c0,1.5,0.3,3.1,0.8,4.5c-0.4,0-0.8-0.2-1,0.3c-0.5,1.5-0.3,3.1-0.9,4.6
	c-0.2,0.4-0.4,1.3,0.6,1.4l-0.3,0.6l0,0c-0.4,0.5-0.5,1.2-0.1,1.7c0,1.8,1.4,2,2.6,2.4c2.5,1,5.2,1.4,7.6,2.7c0,0.2,0,0.3,0,0.5
	c-3.4-0.7-6.7-1.7-10-3c-0.8-0.3-1.3-1.1-1.1-1.9C80.4,344.2,80.4,342.8,80.4,341.3z"/>
<path class="st7" d="M96.6,219.3c0,5.5,0.1,11.1-0.1,16.6c-0.1,5,0,10-0.1,14.9c-0.1,4.1,0,8.2-0.2,12.3c-0.5,0-1-0.1-1.1-0.8
	c-0.1-1.3-0.3-2.5-0.3-3.8c-0.1-10.6-0.1-21.2-0.2-31.8c-0.1-10.3-0.8-20.5-1.9-30.6c-0.1-1.2,0.2-2.7-1-3.6
	c0.1,2.5,0.2,4.9,0.6,7.3c0.6,4.4,0.9,8.8,1.2,13.1c0.4,5,0.1,10,0.3,15c0.4,9.9-0.1,19.8,0.4,29.7c0.2,3.8-0.2,7.5,0,11.3
	c0.2,3.8-0.2,7.6-0.2,11.5c-0.1,11.7,0.3,23.4-0.4,35.1c-0.6,0.3-1.2,0.4-1.8,0.4c-3.7,0.4-3.7,0.4-3.7-3.1c0.1-7.9-0.6-15.7-1-23.5
	c-0.2-4.4-0.1-8.8-0.5-13.2c-0.3-3.6-0.2-7.3-0.5-11c-0.5-7.2-0.8-14.4-1.2-21.6c-0.1-2.5-0.2-4.9-0.5-7.4
	c-0.6-5.3-0.6-10.6-1.2-15.9c-0.4-3.6-0.4-7.2-0.8-10.8c-0.6-6.7-1.3-13.4-2.1-20.1c-0.3-2.7-0.8-5.3-1.2-8.4
	c-0.5,0.7-0.6,1.7-0.4,2.5c0.5,3.7,1,7.5,1.5,11.2c0.8,6.2,0.9,12.4,1.6,18.6c0.4,3.2,0.5,6.4,0.8,9.6c0.4,5.4,1,10.7,1.3,16.1
	c0.2,4.3,0.4,8.6,0.7,12.9c0.5,7.4,0.7,14.8,1.1,22.2c0.1,1.8,0.2,3.7,0.3,5.5c0.2,8.4,0.9,16.8,1.1,25.3c-0.1,2.8,0.1,5.5,0.5,8.2
	c0.1,0.6,0.2,1.1,0.2,1.7c0.1,1.4,0,2.2-1.9,1.9c-1.9-0.3-3.8-0.4-5.7-0.5c-0.6-9-1.7-17.9-3.3-26.8c-0.3,0.2-0.3,0.3-0.3,0.5
	c0.8,6.5,1.4,13,2.3,19.5c0.3,2.3-0.1,4.6,0.6,6.8l-0.4,0c-0.7-0.2-0.9-0.6-1-1.3c-1-9.3-2-18.7-3.1-28c-0.2-2.2-0.6-4.4-0.9-6.6
	c0-0.2,0-0.5,0-0.7c-0.3-1.5-0.1-3-0.6-4.5l-0.2-0.7l-0.1-2c0-0.5,0.3-1.1-0.4-1.4c0-0.3,0-0.7,0-1c0.5-1.6-0.1-3.2-0.3-4.7
	c-0.2-2.5-0.6-4.9-0.9-7.4c-0.5-4.3-0.9-8.6-1.4-12.9c-0.4-3.9-0.9-7.7-1.4-11.6c0.4,0,0.6,0.3,0.7,0.6c0.6,4.1,1.1,8.2,1.8,12.3
	c0,0.9,0.3,1.8,0.8,2.5c0.9-1.5,0-2.8-0.1-4c-0.4-3.9-1.5-7.6-1.8-11.5c-0.1-0.8-0.2-1.8-1.4-0.7l-0.2-2.1c1.6-0.3,0.2-1.3,0.5-2
	s-0.2-1.2-1-1.1c-0.6-4.4-1.1-8.8-1.8-13.1c-0.4-2.8-0.4-5.7-1.7-8.3c-0.1-0.6-0.3-1.2-0.4-1.8c-0.4-1.9-1.3-3.8-1.3-5.8
	c0-0.9,0.2-1.3,1.1-1.5c1.5-0.3,2.8-0.9,2.9-2.7c0.3-0.6,0.3-1.2,0.2-1.8c-0.1-5.8-0.2-11.6-0.4-17.5l0.1-1.3l2-0.6
	c2.3,0.3,4.6,0.3,6.9-0.1c0,0.1,0,0.1,0.1,0.2c0.7,0.5,1.9-0.3,2.4,0.8s-0.9,1.5-1,2.4c-0.3,0.9,0,2,0.8,2.5
	c1.2,0.9,2.4,1.8,3.5,2.9c0.4,0.5,0.8,0.9,1.4,0.9c0.9-0.1,1.3,0.5,1.8,1c1.3,3,3.7,5.2,5.9,7.5c0.3,0.3,0.6,0.9,1.1,0.6
	s0.2-0.9,0.1-1.4c-0.7-2.9-1.5-5.9-2.2-8.8c0.3-0.2,0.6-0.4,0.9-0.6c1.2-0.6,2-0.7,2.5,1c1,3.4,1.7,6.9,2.1,10.4
	c0.6,4.7,0.9,9.4,1.4,14c-0.3,0.3-0.2,0.5,0.1,0.7c0,2.7,0.1,5.3,0.3,8c0,0.1,0,0.2,0,0.3L96.6,219.3z M76.2,286.1
	c-0.4-7.8-1.3-15.5-2.7-23.1C74.4,270.7,74.6,278.5,76.2,286.1z M72,249.2c0.4,4.2,0.3,8.5,1.6,12.7C73.6,257.6,73.1,253.4,72,249.2
	z M66.1,201.1c2.4-1.4,4.7-3,6.8-4.9c0.2-0.2,0.6-0.5,0.4-0.9s-0.7-0.1-1,0.1c-1.1,0.7-2.2,1.4-3.2,2.2
	C68,198.5,66.5,199,66.1,201.1z M65.8,201.3l-0.1-0.1l-0.1,0.1l0.1,0.1L65.8,201.3z"/>
<path class="st8" d="M91.5,350.2c-2.4-1.3-5.1-1.7-7.6-2.7c-1.2-0.5-2.6-0.7-2.6-2.4c0-0.6,0.1-1.2,0.1-1.7l0,0
	c3.2,1.2,6.1,3.2,9.3,4.3c1.3,0.5,2.5,1.3,3.9,1.2l0.1-0.5l-3.7-1l-9.2-4.6c-1-0.1-0.8-1-0.6-1.4c0.6-1.5,0.5-3.1,1-4.6
	c0.3-0.1,0.5,0.1,0.7,0.3c1.1,1.5,1.6,1.7,2.9,0.4c1-0.9,2-1.7,3-2.5c2.9-1.4,5.4-0.2,7.6,1.5c1.8,1.4,3.6,2.7,5.3,4.1
	c-0.8,0.5-1.8,0.1-2.6,0.7c-0.7,0-1.4-0.3-2.1,0.4c0.6,0.2,1.3,0.3,2,0.1c1-0.3,2.3,0.1,3.1-0.9c1.5,1.5,3.5,2.5,4.8,4.1
	c0.7,0.8,1.7,1.5,1.4,2.8c-1.2,0.7-2.7,0.5-4.1,1.2c1.7,0.3,2.9-0.3,4.1-0.5c0.4,1-0.4,1.2-1,1.4s-1.4,0.5-2.1,0.7
	C100.6,351.3,96,350.6,91.5,350.2z M91.5,339.7c-1.2-0.9-2.1-2.3-3.9-2.3l3.8,2.8c0.9,1.1,2.1,1.9,3.5,2.4
	C93.9,341.5,92.7,340.6,91.5,339.7L91.5,339.7z M95,336.8c-1.7-0.9-3.2-0.5-4.7,1C91.9,337.4,93.3,336.5,95,336.8L95,336.8z
	 M103.7,349.1h-3.6C101.2,349.7,102.6,349.7,103.7,349.1L103.7,349.1z M95.7,348.8v0.5c0.8-0.5,1.4,0.4,2.2-0.1c0,0,0-0.3,0-0.3
	c-0.7,0-1.3-0.6-2.1-0.2C95.8,348.7,95.8,348.8,95.7,348.8L95.7,348.8z M99.3,349.1l-0.4-0.2c-0.1,0.1-0.1,0.3-0.1,0.4
	c0,0,0.2,0.1,0.3,0.1S99.4,349.4,99.3,349.1L99.3,349.1z"/>
<path class="st4" d="M93.5,315.7c0.6-11.7,0.2-23.4,0.4-35.1c0-3.9,0.4-7.7,0.3-11.6c-0.2-3.8,0.2-7.5,0-11.3
	c-0.5-9.9,0-19.8-0.4-29.7c-0.2-5,0-10-0.3-15c-0.3-4.4-0.6-8.8-1.2-13.1c-0.3-2.4-0.5-4.9-0.6-7.3c1.2,0.9,0.9,2.4,1,3.6
	c1.1,10.2,1.9,20.4,1.9,30.6c0.1,10.6,0.1,21.2,0.2,31.8c0,1.2,0.2,2.5,0.3,3.8c0,0.7,0.5,0.8,1.1,0.8c0.1,0.2,0.2,0.5,0.3,0.7
	c0,0.7,0,1.4,0,2.1c-0.2,0.1-0.3,0.4-0.2,0.5c0,0.1,0.1,0.1,0.2,0.2c-0.3,8.4-0.2,16.9-0.4,25.3c-0.1,4.4-0.2,8.7-0.1,13.1
	c0,3,0.1,6,0,9c0,0.4-0.1,0.8-0.4,1.1C94.8,315,94.3,316,93.5,315.7z"/>
<path class="st9" d="M83.1,336.4c-0.5-1.4-0.8-3-0.8-4.5l-0.2-4.8c3.2,0.5,6.4,0.8,9.6,0.7c0.1,1.4,0.1,2.8,0.3,4.3
	c0.1,1.1-0.1,1.7-1.4,1.6c-0.6,0.1-1.1,0.2-1.6,0.4l-0.4,0.2l0,0c-1.4,0.5-2.6,1.3-3.5,2.5C84.2,337.7,83.5,337.7,83.1,336.4z"/>
<path class="st7" d="M88,321.6c-0.3,0.5-0.9,0.8-1.5,0.7c-2.4-0.1-4.8-0.4-7.1-1c-1.5-0.3-2-3.3-0.9-4.8c2.4,0.8,5,1.2,7.6,1.2
	c1.2,0.1,1.6,0.4,1.6,1.6C87.5,320.1,87.6,320.9,88,321.6z"/>
<path class="st10" d="M91.7,327.8c-3.2,0.1-6.4-0.2-9.6-0.7c-0.1-1.2-0.7-2.8-0.2-3.7s2.2-0.1,3.4,0c1.8,0.1,3.6,0,5.4-0.3
	c0.7-0.1,1.1-0.1,1,0.8C91.7,325.2,91.7,326.5,91.7,327.8z"/>
<path class="st7" d="M95.6,316.1c0.8,1.4,0.2,2.9,0.3,4.3c0,0.3-0.3,0.4-0.6,0.5l-6.2,1.3c-0.5,0.1-0.9-0.1-1.1-0.6
	c0.4-0.9,0.5-1.9,0.2-2.8c-0.2-1.2,0.3-1.4,1.3-1.3C91.6,317.5,93.7,317,95.6,316.1z"/>
<path class="st2" d="M95.6,316.1c-1.9,0.9-4,1.4-6.1,1.4c-1,0-1.5,0.1-1.3,1.3c0.3,0.9,0.2,2-0.2,2.8l0,0c-0.3-0.7-0.5-1.5-0.3-2.3
	c0-1.2-0.3-1.5-1.6-1.6c-2.6,0-5.1-0.4-7.6-1.2l0.4-0.4l0.4,0H80c1.9,0.1,3.8,0.3,5.7,0.5c1.9,0.3,2-0.5,1.9-1.9
	c0-0.6-0.1-1.1-0.2-1.7l0.6-0.1c0,3.5,0,3.5,3.7,3.2c0.6,0,1.3-0.1,1.8-0.4c0.8,0.3,1.3-0.7,2.1-0.5L95.6,316.1z"/>
<path class="st6" d="M83.1,336.4c0.5,1.2,1.1,1.2,2,0.3c0.9-1.1,2.2-2,3.5-2.5v0.7c-1,0.8-2,1.6-3,2.5c-1.2,1.3-1.8,1.1-2.9-0.4
	c-0.2-0.2-0.4-0.4-0.7-0.3C82.3,336.2,82.7,336.5,83.1,336.4z"/>
<path class="st11" d="M108.3,348.5c-1.3,0.2-2.5,0.9-4.1,0.5c1.4-0.8,2.9-0.5,4.1-1.2L108.3,348.5z"/>
<path class="st7" d="M102.1,340.9c-0.8,1-2.1,0.6-3.1,0.9c0-0.2,0-0.3,0.1-0.5c0.7-0.7,1.8-0.3,2.6-0.7
	C101.8,340.5,102.1,340.7,102.1,340.9z"/>
<path class="st2" d="M72.6,270.7c0.7,0.3,0.4,0.9,0.4,1.4c-0.4,0.1-0.9-0.7-1.3,0c-0.2-0.5-0.3-1.1-0.1-1.6l0.2-0.1L72.6,270.7z"/>
<path class="st2" d="M74,279.4c0,0.2,0,0.5,0,0.7c-0.3,0-0.7,0-0.7-0.3C73.2,279.3,73.7,279.5,74,279.4z"/>
<path class="st2" d="M73.2,274.2l0.2,0.7C72.9,274.8,72.5,274.7,73.2,274.2z"/>
<path class="st2" d="M96.6,266.7c-0.2-0.1-0.3-0.4-0.2-0.5c0-0.1,0.1-0.1,0.2-0.2C96.9,266.2,96.9,266.4,96.6,266.7z"/>
<path class="st6" d="M88.6,334.3l0.4-0.2L88.6,334.3z"/>
<path class="st1" d="M68.4,230.3l0.2,2.1c0,0.2,0,0.5,0,0.7c0.5,3.9,0.9,7.7,1.4,11.6c0.5,4.3,0.9,8.6,1.4,12.9
	c-0.4,0.2-0.8,0.4-1.3,0l0-0.7c0,0,0.1-0.1,0.1-0.1c0,0-0.1-0.1-0.1-0.2c-1.7-14.1-3.5-28.3-5.2-42.4h-0.2c-0.5,6-1.1,11.9-1.6,17.9
	c-0.9,10.3-1.8,20.6-2.6,31c-0.8,9.8-1.4,19.5-2.1,29.3c-0.7,9-1.6,17.9-2.3,26.9c-0.1,1.5,0.1,3.1-2.1,3.1c-1-0.8-2.2,0.5-3.2-0.4
	c0.8-0.4,1.6-0.6,2.4-0.7c0.5,0,1.2-0.2,1.3-0.7c0.2-1.4,0.9-2.8,0.1-4.2v-0.7c0.4-0.5,0.7-1.2,0.6-1.9c0.5-5.1,0.9-10.2,1.3-15.3
	c0.4-4.9,0.7-9.9,1-14.8c0.4-5.3,0.9-10.6,1.3-16c0.4-5,0.5-10.1,0.9-15.2c0.3-3.5,0.8-6.9,1-10.4c0.2-4.2,0.7-8.5,1.2-12.7
	c0.6-5.9,1.6-11.7,1.8-17.6c0.1-1.8,0.7-3.6,0-5.4c0-0.6,0.5-0.6,1-0.6c1.3,2.6,1.3,5.5,1.7,8.3c0.7,4.4,1.2,8.7,1.8,13.1
	C67.9,228.2,68.1,229.3,68.4,230.3z"/>
<path class="st8" d="M30.9,340.6l1.7-1.4c0.3,0,0.5-0.1,0.7-0.3l0,0c2-0.4,3.9,0.3,6.1,1.1c-1.7-1.8-3.6-1.8-5.5-1.7l2.8-1.8
	c1.7,0.6,3.6,0.4,5.6,1.6c-0.6-1.2-1.4-1.2-2.1-1.5c-0.9-0.4-2,0-2.8-0.8c1.2-1,2.6-1.5,4.1-1.5c2,0.3,3.9,1.3,5.3,2.8
	c2.2,2.2,2.5,2,4.2-1c0,2.5,1.5,4.4,0.5,6.6l-9,4.1c-1.2,0.5-2.5,0.9-3.9,1.1c-0.5,0-1.3,0.2-1.4,1l-0.6-0.4
	c-2.4,0.3-4.9,0.4-7.3,0.3c-0.1-0.2-0.2-0.2-0.3,0h-1l-0.5-0.2l-2.9-0.1c-0.1-0.1-0.2-0.2-0.4-0.1c0,0-0.1,0.1-0.1,0.1l0,0
	c-0.6-1.5,0.2-2.5,1.2-3.4c1.4-1.3,2.9-2.4,4.3-3.6c2.2,0.1,4.3,0.3,6.5,0.6c-0.1-0.1-0.2-0.3-0.3-0.4
	C34.5,340.8,32.6,341.3,30.9,340.6z M43.9,337.7c-0.8,0.4-1.6,1-2.1,1.7c-1.2,0.7-2.2,1.7-3.1,2.7c-0.3,0.1-0.7,0-0.8,0.4
	c0,0.1,0.1,0.2,0.2,0.2c0.3,0.1,0.7-0.1,0.8-0.4c1.3-0.6,2.4-1.5,3.2-2.6c0.8-0.5,1.5-1,2.2-1.7c0.2-0.2,0.8-0.3,0.4-0.7
	C44.4,337,44.2,337.5,43.9,337.7L43.9,337.7z"/>
<path class="st7" d="M54.4,316.3c0.8,1.4,0.1,2.8-0.1,4.2c-0.1,0.5-0.8,0.6-1.3,0.7c-0.8,0.1-1.7,0.3-2.4,0.7h-1l-1.8,0.2h-5.2
	c-0.6-0.4-1.3-0.6-2-0.5c-1,0.1-2-0.2-2.8-0.8c0.4-1.5,0-3,0.1-4.5C43.4,317.9,48.9,318.5,54.4,316.3z"/>
<path class="st9" d="M41.5,333.5c-0.6-1.9-0.2-3.8-0.2-5.7c3.1-0.2,6.3-0.2,9.3-1.1c-0.2,3.2,0.6,6.5-0.6,9.6
	c-0.6,1.6-0.9,1.7-2.1,0.5c-1.8-1.8-3.6-3.4-6.3-3.2L41.5,333.5z"/>
<path class="st10" d="M50.7,326.7c-3,0.9-6.2,0.9-9.3,1.1c0-1.1,0-2.3-0.1-3.4s0.5-1.3,1.4-1.1h0.7c2,0.3,4.1,0.2,6.1-0.1
	c1.2-0.2,1.7,0.1,1.5,1.4C50.8,325.3,50.8,326,50.7,326.7z"/>
<path class="st7" d="M42.7,346.8l9-4.1v0.6c-2.9,1.7-5.9,3.1-9.1,4.2C42.7,347.2,42.7,347,42.7,346.8z"/>
<path class="st1" d="M47.8,322.2l1.8-0.2c0,0.5-0.3,0.9-0.8,1c0,0-0.1,0-0.1,0C48.1,323,47.9,322.7,47.8,322.2z"/>
<path class="st1" d="M43.4,323.3h-0.7v-1.1h0.8L43.4,323.3z"/>
<path class="st11" d="M24.8,348.5l2.9,0.1l0.5,0.2h1c0.1,0,0.2,0,0.3,0c2.4,0.1,4.9,0,7.3-0.3c-1.4,1.3-3.2,0.8-4.8,1
	c-2.5,0.2-5-0.1-7.4-0.7L24.8,348.5z"/>
<path class="st11" d="M42.7,346.8c0,0.2,0,0.4,0,0.7c-1.6,0.9-3.5,0.9-5.2,1.5c0.1-0.8,0.8-1,1.4-1
	C40.1,347.7,41.4,347.3,42.7,346.8z"/>
<path class="st1" d="M24.8,348.5l-0.1,0.3c-0.2,0-0.4,0-0.3-0.3C24.4,348.4,24.6,348.3,24.8,348.5C24.7,348.4,24.8,348.5,24.8,348.5
	z"/>
<path class="st7" d="M30.9,340.6c1.6,0.8,3.5,0.2,5.1,1.2c0.1,0.1,0.2,0.2,0.3,0.4c-2.1-0.3-4.3-0.5-6.5-0.6
	C29.9,340.9,30.6,340.9,30.9,340.6z"/>
<path class="st7" d="M34,338.2c1.9-0.1,3.7,0,5.5,1.7c-2.2-0.7-4.1-1.4-6.1-1.1L34,338.2z"/>
<path class="st12" d="M37.5,335.7c0.8,0.7,1.9,0.4,2.8,0.8c0.6,0.2,1.5,0.2,2.1,1.5c-1.9-1.2-3.8-1-5.6-1.6
	C36.8,335.9,37,335.7,37.5,335.7z"/>
<path class="st7" d="M33.4,338.9c-0.2,0.2-0.4,0.3-0.7,0.3C32.8,338.9,33.1,338.8,33.4,338.9z"/>
<path class="st3" d="M131.6,146.4c0.2,0.3,0.3,0.7,0.1,1c-0.5,0.1-0.7,0.3-0.2,0.7c-1.5,7.2-4.7,13.7-8.3,20
	c-0.8,1.4-1.7,2.7-2.5,4.1c-0.6,0-1.3,0.2-1.8,0.6c-1.3,0.7-2.6,1.4-3.9,2.1c-1.5,0.8-3.4,0.7-4.8-0.4c-1.3,1.6-2.8,3-4.4,4.2
	c-0.7,0.6-1.6,0.9-2.5,0.9l-5.2-5.7c-0.4-0.4-0.8-0.8-0.1-1.3c1.3-1.2,2.5-2.5,3.5-4c1.7,0,2.9,1.1,4.2,2c0.9,0.6,1.6,1.7,2.8,1.8
	l0.4,0.3l0.1,0.2c0,0,0-0.1,0-0.1c0,0-0.1,0-0.1-0.1l-0.3-0.4c-0.4-0.7-1-1.3-1.7-1.7c-1.8-1.3-3.4-3.2-6-2.8
	c-1.4-2.1-1.4-3.4,0.2-5c2.1-2,3.7-4.4,4.9-7c0.9-2.3,2.6-4.1,3.4-6.5c0.7-0.1,0.7-1,1.3-1.2c0.3,0,0.6-0.1,0.8-0.1
	c2-1,4.1-1.7,6.3-2.1c2.2-0.5,4.6-0.5,6.8-1.2c-1.5-0.4-3-0.4-4.5-0.2c-2.9,0.4-5.7,1.1-8.5,1.9c0.8-2.4,2.8-3.4,4.8-4.6
	c1.1,0.5,2.4,0.2,3.4-0.6c0.6-0.5,0.9-1.1-0.2-1.4c-1.4-0.4-3,0.2-3.6,1.5c-2,1.1-3.8,2.3-4.9,4.5h-0.1c-0.7-0.5-1.3-1.1-1.8-1.8
	c-1.6-2.4-3.4-4.6-5.1-6.9c0.1-0.7-0.3-1.4-1-1.7l-0.4-0.4c-0.6-1-0.8-2.2-1.8-3c-1.2-1-1.9-2.5-3-3.5s-0.9-2.5-2.2-3.2
	c0.2-2.3,1.9-4.2,1.7-6.7c-0.8,0.4-0.7,1-0.9,1.5c-0.9,2.7-2,5.4-3.3,8l0,0c0-3.2-0.5-6.3-1.3-9.4c0-1.3-0.4-2.6-1.3-3.6
	c0,1.2,0.3,2.4,0.6,3.5c0.1,0.6,0.1,1.1,0.2,1.7c0.5,2.5,0.2,5.1,0.9,7.6c-0.3,6.2-0.3,12.5-0.4,18.7c0,2-0.7,3.9,0.1,5.9
	c-0.7-0.1-1.5,0.1-2.1,0.6c-3.1,2.2-6.2,4.5-9.5,6.4c-1.3,0.8-2.3,2.2-4.1,2c0.8-1.1,2.2-1.5,2.9-2.7c1.5-0.6,1.9-2.2,3-3.1
	c2.4-2,4-4.8,4.6-7.9c0.1-1.2-0.2-2.3-0.8-3.2c-0.3-0.6-1.1-0.9-1.7-0.6c-0.1,0.1-0.3,0.2-0.4,0.3c-1.5,1.8-2.5,3.9-3.1,6.2
	c0,0.1,0,0.2,0,0.4c-0.3,0-0.6,0.2-0.7,0.6c0,0,0,0.1,0,0.1c-0.8,1.4-1.4,2.8-2.3,4.1c-1.5,2.5-3.1,4.8-4.9,7.1l-0.2,0.2
	c-0.1-0.3-0.3-0.6-0.6-0.5c-2,0.3-4.1,0-6.1,0.7c-0.9,0.3-1.8,0.3-2.7,0c-1.3-0.3-2.8,0-3.9,0.8c-0.7,0-1.4-0.2-1.9-0.7
	c-1.9-1.3-3.5-3-4.9-4.8c-2.7-3.4-5.1-7-7.3-10.8c-1-2.3-2.2-4.5-3.7-6.5c-0.5-0.7-1.1-1.9-2.1-1.3s-0.4,1.8-0.3,2.7
	c0,0,0.1,0.1,0.1,0.1c0.3,2.2,2,3.8,3,5.6c0.3,0.7,0.5,1.4,1.3,1.7c1.2,2.3,2.7,4.4,4.5,6.2l0.4,0.4l0,0c0.6,2.2,2.8,3,3.9,4.8
	c-0.7,0.8-1.5,0.4-2.2,0.1c-3.6-1.4-7.1-3.2-10.6-5c-0.7-0.3-1.3-0.9-2.1,0c-0.5,0.5-0.1-0.5-0.4-0.6c0.4-1.4,1.3-2.6,1.7-4
	c0.6-2.2,0.1-4.4,0-6.5c-0.2-5-0.6-9.9-0.9-14.9c0-0.2-0.1-0.5-0.1-0.7c0.1-1.6,0.2-3.2,0.3-4.8c0.4-1.8,0.5-3.6,0.2-5.4
	c-0.6,1.5-0.8,3.1-0.8,4.7c-0.1,1.1-0.2,2.1-0.3,3.2c-0.5,0-1-0.4-1.1-0.9c-0.5-1.1-0.9-2.2-1.5-3.3c-0.7-1.5-1.5-2.9-2.2-4.4
	c0.1,2.7,1.8,4.7,2.3,7.1c-1,0-0.6,1-0.9,1.4c-1.9,2.5-3.5,5.1-5.1,7.8c-0.5,0.8-1.3,1.5-1.2,2.5c-1.5,2-2.9,4-4.1,6.1
	c-0.4,0.8-1,1.4-1.9,1.6c-0.1,0-0.1-0.1-0.2-0.1c-0.5-1.2-1.5-2.2-2.7-2.6c-0.2-0.9-1.2-1-1.7-1.6c-0.6-1.2-1.9-1.3-3-1.6
	c-0.6-0.2-1.6-0.1-1.7,0.7s0.8,0.6,1.3,0.7c0.5,0.1,1,0.2,1.5,0.3l3.4,2.1l2.2,2.3c-0.6,0.6-1.2,0.5-1.9,0.2
	c-3.1-1.2-6.4-1.7-9.8-1.5c-0.3,0-0.9-0.2-0.9,0.5c3.7,0.4,7.4,0.6,11,1.8c0.9,0.3,1.7,1,2.8,0.5c0.2,0.4,0.4,0.8,0.8,1
	c1.2,2.2,2.4,4.3,3.5,6.5c-0.6,1.7,0.3,3.5,2,4.1c0,0,0.1,0,0.1,0c0,0.1,0,0.2,0,0.3c-0.1,0.4,0.2,0.7,0.5,0.8c0,0,0,0,0.1,0
	c1.2,1.1,2.3,2.4,3.2,3.7c0.8,1.6,0.4,3.5-1,4.6c-3.2-0.2-7.2,2-8.2,5c1.1-0.9,2-1.6,2.8-2.4c1.4-1.1,2.9-2.4,4.9-1.9
	c0,0.3-0.2,0.7-0.4,0.9c-1.5,1.8-2.9,3.7-4.2,5.6c-0.3,0.5-0.8,1.1-0.2,1.7c0.8,0.8,0.8,1.9,1.1,2.8c-0.5,0.6-0.6,0-0.8-0.2
	c-1.3-1.4-2.7-2.9-4-4.3c-0.5,0-0.7,0.4-0.8,0.9c-0.8,0.1-1.6,0-2.4-0.3c-1.9-1.7-4.4-2.4-6.7-3.4C8,166.1,4.6,159,2.2,151.5
	c-0.4-0.7-0.5-1.5-0.4-2.3l-0.3-0.5c-0.1-0.3-0.1-0.6-0.2-1c0.9-1.7,2-3.4,3.1-5c0.4-0.9,1.3-1.5,2.4-1.5c2.3-0.1,2.9-1,2.2-3.2
	c-0.2-0.6,0.2-0.8,0.4-1.1c1.2-2.3,4.2-3.1,5.1-5.6c0-0.1,0.2-0.1,0.3-0.2c2-2,4-3.9,5.9-6c3.3-3.8,6.5-7.6,9.8-11.5
	c0.4-0.4,1-0.7,0.5-1.4l0.1-0.1c1,0.4,0.8-0.3,0.8-0.8c0-0.1,0.1-0.2,0.1-0.3c2.1-2.4,3.9-4.7,7.9-2.8c3.2,1.6,6.7,0.3,9.9-1.1
	c0.3-0.1,0.5-0.2,0.8-0.2c3.5,1.7,7.2,2.6,11.1,2.8c2.8,0.6,5.8,0.6,8.6,0c1.9-0.2,3.7-0.5,5.6-0.9c2.1-0.6,4.3-1,5.9-2.6h0.3
	c0.4,0,0.8,0.1,1.1,0.4c3.7,2.5,8.4,2.7,12.3,0.6c1.7-0.8,2,1,3,1.2c1,1.2,2.4,2.1,3.2,3.5c0.2,0.8-0.3,2.1,0.5,2.5
	c2.5,1.5,3.6,4.1,5.7,5.9c0.9,0.7,1.5,1.7,1.5,2.8c0,0.5,0.3,1.3,0.7,1.3c1.7,0,2.2,1.6,3.3,2.4c2.1,1.6,3.8,3.5,5.2,5.6
	c1.2,1.9,3.3,2.3,4.4,4.2c0.7,1.3,3.1,1.6,2.4,3.9c0,0.1,0,0.2,0.1,0.3c1.9,0.4,2.2,1.8,2.7,3.4
	C128.8,145.3,130.1,146.2,131.6,146.4z M66.9,155.2c0.2-0.5-0.3-0.6-0.5-0.9c-0.1-0.2-0.3-0.4-0.5-0.6c-4.7-4-9-8.6-12.7-13.6
	c-0.5-0.7-0.8-1.8-1.9-1.9c0.1,0.9,0.5,1.7,1.2,2.3c3.9,5,8.2,9.6,12.8,13.9C65.7,154.9,66.2,155.4,66.9,155.2z M39.4,115.5
	c-0.3,1-0.6,1.9-0.9,2.9c-0.1,0.3,0,0.6,0.3,0.7s0.5-0.2,0.5-0.5C39.4,117.5,40.1,116.6,39.4,115.5L39.4,115.5z"/>
<path class="st7" d="M63.4,206.4c0.7,1.8,0.1,3.6,0,5.4c-0.3,5.9-1.2,11.8-1.8,17.6c-0.5,4.2-1,8.4-1.2,12.7
	c-0.2,3.5-0.7,6.9-1,10.4c-0.4,5.1-0.6,10.1-0.9,15.2c-0.4,5.3-0.9,10.6-1.3,16c-0.4,4.9-0.6,9.8-1,14.8c-0.4,5.1-0.8,10.2-1.3,15.4
	c0.1,0.7-0.2,1.4-0.6,1.9H53c0.7-1.7,0.1-3.4,0.4-5.1c0.9-5.3,0.9-10.8,1.3-16.1c0.2-2.7,0.5-5.3,0.6-8c0.1-1.1,0.3-2.3-0.4-3.4
	c-0.4,1.1-0.6,2.3-0.6,3.5c0.1,3.1-0.3,6.2-0.5,9.3c-0.1,2-0.2,4.1-0.3,6.1c-0.3,4.6-1.2,9.2-0.9,13.8c-2.6,0.8-5.3,1-8,0.7
	c0.3-1.6-0.4-3.2-0.3-4.8c0.1-2.8,0.3-5.6,0.3-8.4c0-9.4,0-18.7,0-28.1c0-3.2,0.2-6.3,0.3-9.5c0.2-6.9-0.1-13.8,0.3-20.7
	c0.4-6,0-12,0.4-18c0.2-3.3,0.1-6.6,0.3-10c0.4-6.9,0.7-13.8,1.5-20.7c0.4-3.2,0.5-6.5,0.9-9.7c0.2-1.2,0.7-2.5,0-4.1
	c-0.7,2.3-1.2,4.8-1.3,7.2c-0.7,6.6-1.3,13.2-1.7,19.8c-0.4,6.3-0.5,12.6-0.7,18.9c-0.2,4.2,0.1,8.5-0.2,12.7
	c-0.5,6.2,0.2,12.5-0.4,18.8c-0.3,3.3,0,6.6-0.1,9.8c-0.1,7.5,0,15-0.3,22.5c-0.3,8.1-0.1,16.1-0.4,24.2c-1.9,0-3.7-0.9-5.6-1.1
	c0-0.5,0-1,0-1.5c-0.6-15.2-1.1-30.4-1.7-45.5c-0.4-9.4-0.6-18.9-0.8-28.3c-0.4-15.2-0.1-30.4,1-45.5l2-4c1.7-2.1,3.2-4.3,4.5-6.6
	c0.5-0.8,0.9-1.6,2.1-1.4c0.4,0,0.8-0.1,1.1-0.4c0.5-0.7,1.3-1.1,2.2-1.1c0.9,0,1.3-0.9,1.7-1.7c0.7-1.4,2.3-2.5,0.7-4.2
	c-0.5-0.4-0.8-1-0.7-1.6c2.8,0.3,5.5-0.4,8.3,0c0.7,0.1,1.3-0.3,2-0.5c0.7,0.6,1.1,1.5,1,2.5c-0.1,2.1-0.1,4.1,0,6.2
	c0.3,7.9-0.4,15.9,2.5,23.6l-0.2,0.2c-2-0.3-3.5-1.6-5.5-2c-0.4-0.1-0.9-0.4-1.1,0c-0.3,0.6,0.4,0.8,0.8,0.9
	C59.5,204.9,61.5,205.7,63.4,206.4z M59.4,238.4c-1.7,9.2-2.7,18.6-3,28C57.4,257,58.6,247.7,59.4,238.4L59.4,238.4z M55.3,282.4
	c0.7-5,1.5-10,0.9-15.1C56.1,272.3,55,277.2,55.3,282.4L55.3,282.4z"/>
<path class="st8" d="M93.5,137.7c4.2,3.1,8.1,6,12,9c1,0.8,2.9,1.2,2.9,2.4s-1.2,2.2-1.8,3.4c-1.9,3.5-3.6,7.1-6.5,9.9
	c-1.3,1.2-1.6,3.1-0.8,4.6c1.2,2,0,3-1.1,4.2c-0.9,1-1.6,1.1-2.6,0.1c-1-1-2.1-2-3.3-2.7c-1.8-1.2-2.1-3.2-3-4.9
	c-0.3-0.6,0.4-0.9,0.8-1.2c1.5-0.8,2.8-1.8,3.9-3.1c0.8-1,1.1-2.3,0.7-3.6c-1.8-5.4-1.2-10.9-1-16.3
	C93.7,138.9,93.6,138.3,93.5,137.7z"/>
<path class="st8" d="M36.8,169.8c-0.4,0-0.5,0.4-0.8,0.5c-0.7,0.2-1,1.8-2,0.7c-0.8-0.9-2-1.7-0.8-3.3s0.8-4-0.6-5.6
	c-1.8-2.1-3.4-4.4-4.6-6.8c-0.8-1.8-1.8-3.5-2.9-5.1c-0.8-1-0.6-1.7,0.5-2.5c4-2.8,8-5.7,12.1-8.7c0.3,4,0.8,7.9,0.4,11.8
	c-0.2,1.2-0.6,2.3-1.2,3.4c-1.4,2.6-1.2,3.9,0.9,5.9c0.7,0.8,1.6,1.5,2.6,2c1.1,0.5,1.3,1,0.6,2.2C39.8,166.3,38.3,168.2,36.8,169.8
	L36.8,169.8z"/>
<path class="st9" d="M86.5,177.4c-1.7,0.9-3.4,1.6-5.2,2.2c-0.6,0.2-1.2,0.2-1.5-0.3c-0.5-0.7,0.4-0.8,0.7-1.1
	c0.5-0.5,1-0.9,1.6-1.3l0,0l1-0.8l5.8-3.7c-3.3,0.5-6,2.2-8.7,3.8c-0.8,0.2-1.5,1.5-2.2,0.6s0.5-1.5,1.1-2.1c1.8-1.9,4-3.4,6.5-4.4
	c0.7-0.3,1.3-0.7,1.8-1.1c-1.6-0.3-3-1.3-4.7-0.2c-1.2,0.7-2.3,1.8-3.9,1.6c-0.3,0-0.7,0-0.9-0.4s0.1-0.5,0.3-0.7
	c2.6-3.6,5.9-4.4,9.9-2.5c3.5,1.7,6.6,4.2,9.2,7.1c1.6,1.9,3.2,3.7,5,5.5c0.9,0.9,0.5,1.4-0.3,1.9c-0.9,0.7-2.2,0.9-3.3,0.5
	c-2-0.6-3.9-1.4-5.6-2.5c-0.9-0.6-2.1-0.7-3-0.3c-2.1,0.9-4.3,1.6-6.6,1.9c-0.5,0-1.1,0.2-1.3-0.4s0.5-0.8,1-1
	c1.3-0.5,2.6-1.2,3.8-2c1.2-0.6,2.5-1.1,3.3-2.3C88.8,176,87.6,176.6,86.5,177.4z"/>
<path class="st9" d="M36.8,169.9c0.7,0.5,0.8-0.3,1.2-0.5c0.5-0.3,0.9-0.7,1.3-1.1c3.9-3.1,6.7-2.8,10,1c0.4,0.4,0.8,1,0.4,1.5
	s-1,0.2-1.4,0c-0.6-0.3-1.3-0.6-1.9-0.9c-2.6-1.6-2.6-1.6-5.8-0.5c2.7,1.1,5.2,2.5,7.4,4.3c0.7,0.6,1.3,1.3,1.8,2.1
	c0.2,0.3,0.5,0.7,0.2,1.1s-0.8,0-1.1-0.2c-2.6-1.3-4.9-3.2-7.7-4.1c-0.5-0.2-1.2-0.9-1.5-0.2s0.7,0.9,1.2,1.1c2.6,1.4,5,3.1,7.2,5
	c0.3,0.3,0.9,0.5,0.6,1s-0.8,0.4-1.2,0.2c-2.3-1-4.6-2.1-6.9-3.2c-0.9-0.4-1.9-0.8-2.8-1c1,1.2,2.5,1.5,3.7,2.3s2.3,1.3,3.4,2
	c0.3,0.2,0.8,0.5,0.6,0.9s-0.7,0.5-1.1,0.5c-1.3-0.1-2.6-0.5-3.8-1c-1.9-0.8-3.6-0.9-5.5,0.5c-1.2,0.9-2.7,1.5-4.3,1.7
	c-1.1,0.1-2.1-0.4-2.6-1.3c-0.4-0.7,0.4-1.3,0.8-1.9c2.1-2.9,4.5-5.6,7.1-8C36.4,170.8,37.2,170.7,36.8,169.9L36.8,169.9z"/>
<path class="st0" d="M36.2,194.4c-1.1,15.2-1.3,30.3-1,45.5c0.2,9.4,0.4,18.9,0.8,28.3c0.6,15.2,1.2,30.3,1.7,45.5c0,0.5,0,1,0,1.5
	c-0.2,0.4,0.1,0.7,0.2,1c-0.1,1.5,0.2,3-0.1,4.5c-1.2-0.3-1-1.2-1-2.1c-0.2-6.3-0.3-12.5-0.4-18.8c0-0.6-0.1-1.2-0.1-1.9
	c-0.2-4.2-0.3-8.5-0.5-12.8c-0.6-15.8-1.4-31.5-1.5-47.3c-0.1-14-0.4-27.9,0.7-41.8c0.1-1.9,0.4-3.7,0.5-5.6c0.5-2.3,1-4.6,1.4-6.9
	c0.6,0.2,0.3,0.6,0.3,1C37,187.9,36.7,191.2,36.2,194.4z"/>
<path class="st13" d="M102.8,134.9l0.4,0.4c0,0.8,0,1.5,1,1.7c1.7,2.3,3.5,4.5,5.1,6.9c0.5,0.7,1.1,1.3,1.8,1.8
	c-0.5,0.8-0.6,1.9-1.7,2.1c-4.9-3.5-9.8-7.1-14.7-10.6c-0.7-0.4-1.1-1.1-1.1-1.8c0-2.3-0.1-4.6-0.2-7h1.1c0,0.2,0,0.6,0.1,0.6
	c1.8,0.4,3.2,1.6,4,3.2c0.8,1.3,3.5,0.7,2.9,3.2C102.2,135.7,102.1,134.3,102.8,134.9z"/>
<path class="st13" d="M76.9,161.5c1.8,0.2,2.9-1.2,4.1-2c3.3-2,6.3-4.2,9.5-6.4c0.6-0.4,1.3-0.6,2.1-0.6c0.1,0.2,0.2,0.3,0,0.5
	l-0.2,0.2c0.2,0.2,0.2-0.1,0.3-0.1c2,4.8,1,5.3-3,8.4c-2.5,1.9-5.6,1.8-8.4,2.5c-1.5,0.4-3.1,0.4-4.7,0.8c-1.1,0.3-2.2,0.3-3.4,0.2
	c0.6-1.7,2.5-2.1,3.4-3.4L76.9,161.5z"/>
<path class="st13" d="M21.8,145.4c0.8-0.2,1.5-0.8,1.9-1.6c1.2-2.1,2.6-4.2,4.1-6.1c1.4-0.5,2.8-1.1,3.1-2.8c0-0.1,0.3-0.2,0.3-0.4
	c0.4-1,1.8-1.4,2.1-2.2c0.5-1.5,1.3-1.4,2.4-1.1c0.5,0.1,1,0.2,1.5,0.4v1.4c-0.3,0.1-0.2,0.3,0,0.4c0.1,1.2,0.1,2.5,0.3,3.7
	c0.1,0.5-0.2,1-0.6,1.3l-12.7,9c-0.4,0.2-0.7,0.7-1.1,0.2C22.9,146.6,22.1,146.1,21.8,145.4z"/>
<path class="st7" d="M61.7,173.7l1.7,0.1c0.7,0.6,1.6,0.1,2.4,0.3c0,1.9,0,3.9,0,5.8c0,4.8,0.1,9.5,0.1,14.3
	c-0.3,1.2-1.3,1.5-2.3,1.8s-1.2,0-1.3-0.9c-0.1-1.4-0.2-2.7-0.3-4.1C61.8,185.2,61.6,179.4,61.7,173.7z"/>
<path class="st8" d="M31,112c0.5,0.7-0.2,1-0.5,1.4c-3.3,3.8-6.5,7.7-9.8,11.5c-1.9,2.1-3.9,4-5.9,6c-0.1,0.1-0.2,0.1-0.3,0.2
	c-0.9,2.6-3.9,3.3-5.1,5.6c-0.2,0.4-0.6,0.5-0.4,1.1c0.7,2.2,0,3.1-2.2,3.2c-1,0-2,0.6-2.4,1.6c-1.1,1.7-2.2,3.4-3.1,5.2l-0.2-0.8
	c-0.2-2.3,1.1-4,2.1-5.9c5-6.6,11.1-12.2,16.9-18.1C23.7,119.4,27.2,115.4,31,112z"/>
<path class="st13" d="M37.4,155.9c0.3,0.1-0.1,1.1,0.4,0.6c0.9-0.8,1.5-0.3,2.1,0c3.5,1.8,7,3.5,10.6,5c0.8,0.3,1.5,0.7,2.2-0.1
	c1.4,1,2.6,2.2,3.7,3.5c-1.4,0.3-2.8-0.2-4.2-0.1l-0.6-0.1l-0.7-0.1l-7.9-1.4c-0.2-0.9-0.9-1.6-1.8-1.9c-1.4-0.6-2.6-1.6-3.5-2.8
	C37,158,36.8,156.8,37.4,155.9z"/>
<path class="st13" d="M48.5,156.4c-1.8-1.8-3.3-3.9-4.5-6.2c0.4-1,0.4-2.1,1.7-2.4c2.2,3.8,4.7,7.4,7.3,10.8
	c1.4,1.8,3.1,3.4,4.9,4.8c0.5,0.4,1.2,0.7,1.9,0.7c0,0.4,0,0.8,0,1.2c-1,0.3-2.1,0.1-2.8-0.6c-2.3-2.3-4.5-4.6-6.8-6.8
	c-0.4-0.4-0.8-1-1.5-1l0,0L48.5,156.4z"/>
<path class="st2" d="M61.7,173.7c-0.1,5.8,0.1,11.5,0.4,17.3c0,1.4,0.2,2.7,0.3,4.1c0,0.9,0.3,1.2,1.3,0.9s2-0.6,2.3-1.8l0.7-0.1
	c-0.1,1.8-1.4,2.4-2.9,2.7c-1,0.2-1.1,0.6-1.1,1.5c0,2,0.9,3.9,1.3,5.8c0.1,0.6,0.3,1.2,0.4,1.8c-0.4,0-0.9,0-1,0.6
	c-2-0.7-4-1.5-5.9-2.2c-0.4-0.1-1-0.3-0.8-0.9c0.2-0.4,0.7-0.1,1.1,0c1.9,0.4,3.5,1.7,5.5,2c0.1,0.1,0.2,0.2,0.4,0
	c0,0-0.1-0.2-0.2-0.2c-2.9-7.6-2.2-15.7-2.5-23.6c-0.1-2.1-0.1-4.1,0-6.2c0.1-0.9-0.3-1.9-1-2.5C60.8,172.8,61.5,172.8,61.7,173.7z"
	/>
<path class="st7" d="M68.2,171.3c-1.2-1.3-0.5-2.8-0.6-4.2c0-0.5,0.4-0.5,0.9-0.5c1.9,0,3.7-0.1,5.6-0.2c0.9,0,1.1,0.4,1.1,1.1
	c-0.1,0.9,0,1.9,0.2,2.8v1.3C73,171.2,70.6,171.2,68.2,171.3z"/>
<path class="st7" d="M56,171.5h-0.9c-2.2,0-2.2,0-2.1-2.2c0-3,0-3,3.1-3c0.4,0,0.8,0,1.2,0.1c2.7,0.1,2.6,0.1,2.7,2.9
	c0.1,1.7-0.6,2.2-2.1,2.2H56z"/>
<path class="st13" d="M27.2,180c-0.3-1-0.3-2-1.1-2.8c-0.6-0.6-0.1-1.2,0.2-1.7c1.3-2,2.7-3.9,4.2-5.6c0.3-0.2,0.4-0.6,0.4-0.9h0.3
	c0.3,0.9,0.9,1.6,1.6,2.2c0.8,0.9,1,1.4,0,2.3C30.6,175.3,29.1,177.8,27.2,180z"/>
<path class="st0" d="M60,165.2c0-0.4,0-0.8,0-1.2c1.1-0.9,2.5-1.2,3.9-0.8c0.9,0.3,1.8,0.3,2.7,0c2-0.7,4.1-0.4,6.1-0.7
	c0.3,0,0.5,0.3,0.6,0.5c-0.2,1.1-1.6,1.3-2,2.3L60,165.2z"/>
<path class="st0" d="M37.2,131.5c-0.5-0.1-1-0.2-1.5-0.4c-1.1-0.3-1.9-0.3-2.4,1.1c-0.3,0.9-1.7,1.2-2.1,2.2c0,0.1-0.3,0.2-0.3,0.4
	c-0.3,1.8-1.6,2.3-3.1,2.8c-0.1-1.1,0.7-1.7,1.2-2.5c1.6-2.6,3.2-5.3,5.1-7.8c0.3-0.5,0-1.4,0.9-1.4c0.8,1,1.4,2.2,1.8,3.4v0.4
	c0,0.4-0.1,0.9,0.5,1L37.2,131.5z"/>
<path class="st13" d="M103.4,179.6c0.9,0,1.8-0.3,2.5-0.9c1.7-1.2,3.1-2.6,4.4-4.2c1.4,1.1,3.2,1.2,4.8,0.4c1.3-0.7,2.6-1.4,3.9-2.1
	c0.5-0.4,1.1-0.6,1.8-0.6c-0.9,2.4-3.1,3-5.1,3.6c-1.5,0.5-3.1,1-4.7,0.3c-0.5-0.2-0.7,0.2-0.9,0.5l-1,0.8l-0.2,0.3l-0.1,0.1
	l-0.4,0.3c-0.9,0.7-1.8,1.3-2.6,2C104.6,181.2,103.9,181,103.4,179.6z"/>
<path class="st7" d="M84.6,182.8c0.1-0.2-0.1-0.7,0.2-0.7c1.3,0,2.5-0.7,3.8-0.5c0.3,2.8,1.5,5.3,1.9,8.1c-1.5-1.8-3.3-3.3-4.4-5.4
	C85.8,183.7,85.5,182.9,84.6,182.8z"/>
<path class="st2" d="M84.6,182.8c0.9,0.1,1.2,0.9,1.5,1.5c1.1,2.1,3,3.6,4.4,5.4c-0.4-2.8-1.6-5.4-1.9-8.1l0.7-0.3
	c0.8,2.9,1.5,5.9,2.2,8.8c0.1,0.5,0.4,1.1-0.1,1.4s-0.8-0.3-1.1-0.6c-2.2-2.3-4.6-4.4-5.9-7.5L84.6,182.8z"/>
<path class="st4" d="M36.2,194.4c0.5-3.2,0.8-6.4,0.9-9.6c0-0.4,0.2-0.8-0.3-1c-0.1-0.6,0-1.3,0.3-1.8c0.3-0.9,1.7-1.1,2.5-0.3
	c-0.1,0.7-1.5,0-1.2,1.1c0.1,0.7,0,1.5-0.1,2.2c0,1.3-0.4,2.7,0.3,4c0,0.5-1.2,0.8-0.3,1.5L36.2,194.4z"/>
<path class="st7" d="M38.5,188.9c-0.7-1.3-0.3-2.7-0.3-4c0.2-0.7,0.2-1.5,0.1-2.2c-0.3-1,1.1-0.4,1.2-1.1l0.6,0.1
	c0.1,0.7,0.7,1.3,1.5,1.2C41.3,185.2,39.6,186.9,38.5,188.9z"/>
<path class="st2" d="M68.2,171.3c2.4-0.1,4.8,0,7.2,0.2c0,0.4,0,0.8,0,1.2c-2.3,0.4-4.6,0.4-6.9,0.1
	C68.5,172.3,68.4,171.8,68.2,171.3z"/>
<path class="st11" d="M37.3,130.8c-0.6-0.2-0.5-0.6-0.5-1c0.3-0.1,0.3-0.2,0-0.4c-0.4-1.2-0.9-2.4-1.8-3.4c-0.5-2.5-2.2-4.5-2.3-7.1
	c0.8,1.5,1.5,2.9,2.2,4.4c0.5,1.1,1,2.2,1.5,3.3c0.1,0.5,0.6,0.9,1.1,0.9v2.3C37.4,130.1,37.7,130.6,37.3,130.8z"/>
<path class="st2" d="M80.3,176.2c2.7-1.6,5.4-3.3,8.7-3.8l-5.8,3.7c-0.4-0.6-1-0.2-1.3,0s0,0.6,0.2,0.8l0,0
	C81.4,176.8,80.6,177.3,80.3,176.2z"/>
<path class="st7" d="M75.6,167.4c0-0.8-0.1-1.7,1.1-1.7s0.8,1,0.9,1.7c0.2,1.2-0.5,2.4-0.1,3.6c0.1,0.2-0.1,0.5-0.3,0.6
	c0,0-0.1,0-0.1,0c-0.3,0-0.6,0-0.7-0.3s-0.2-0.8-0.4-1.1C75.8,169.2,76.1,168.3,75.6,167.4z"/>
<path class="st12" d="M48.9,156.7c0.7,0,1.1,0.6,1.5,1c2.3,2.3,4.5,4.5,6.8,6.8l-0.7,0.4c-1.1-1.3-2.3-2.5-3.7-3.5
	C51.6,159.8,49.5,158.9,48.9,156.7z"/>
<path class="st11" d="M94.5,128.4h-1.1c-0.1-0.1-0.1-0.2,0-0.2c1.3-2.6,2.4-5.3,3.3-8c0.2-0.5,0.1-1.2,0.9-1.5
	c0.1,2.5-1.6,4.4-1.7,6.7C95,126.1,95.2,127.4,94.5,128.4z"/>
<path class="st12" d="M92.1,118.7c0.8,3.1,1.3,6.2,1.3,9.4l-0.6-0.1c-0.8-2.5-0.4-5.1-0.9-7.6c-0.1-0.5-0.2-1.1-0.2-1.7L92.1,118.7z
	"/>
<path class="st2" d="M43,163.3l7.9,1.4c-0.2,0.3-0.5,0.7-0.7,1c-0.5-0.5-0.8-0.1-1.1,0.2c-0.2-0.3-0.5-0.6-0.9-0.6l-5.2-1.4
	L43,163.3z"/>
<path class="st7" d="M52.3,168.6c0,0.6,0,1.1,0,1.7s0,1-0.6,1c-0.5,0.1-0.9-0.3-1-0.7c0,0,0,0,0,0c0-1.4,0.1-2.8,0.5-4.1
	c0.1-0.4,0.4-0.6,0.8-0.5c0.5,0.1,0.3,0.5,0.4,0.8C52.3,167.3,52.3,167.9,52.3,168.6L52.3,168.6z"/>
<path class="st7" d="M66.6,168.1c0.5,2.6-1.7,1.8-2.9,2.4l-0.4-0.2v0c-0.1-0.4-0.5-0.7-1-0.7l0,0l0.1-1.3l3.7-0.3L66.6,168.1z"/>
<path class="st11" d="M31.2,168.8h-0.3c-2.1-0.4-3.5,0.8-4.9,1.9c-0.9,0.7-1.7,1.4-2.8,2.4c1-3,5-5.2,8.2-5L31.2,168.8z"/>
<path class="st12" d="M62,169.5c-0.3,2.1-0.3,2.1,1.8,1.9c0.8-0.1,1.6-0.1,2.3,0c0.3,0,0.6,0.2,0.6,0.5c0,0.4-0.3,0.4-0.6,0.4h-3.8
	c-0.5,0-0.9-0.3-1-0.8c-0.4-1.5-0.3-3,0.3-4.4l0,0c0,0.4-0.1,0.8,0.3,1.1l0,0L62,169.5z"/>
<path class="st13" d="M12.5,172.7c2.3,0.9,4.8,1.6,6.7,3.4C16.5,175.8,13.9,175.3,12.5,172.7z"/>
<path class="st7" d="M43,164l5.2,1.4l-0.5,1.4c-1.7-1.5-3.8-1.5-6-1.4C41.9,164.5,42.2,164,43,164z"/>
<path class="st11" d="M108.6,172.3c-1.2-0.1-1.9-1.2-2.8-1.8c-1.3-0.9-2.5-2-4.2-2l-0.5-0.7c2.6-0.5,4.2,1.5,6,2.8
	C107.7,171,108.3,171.6,108.6,172.3L108.6,172.3z"/>
<path class="st12" d="M71.3,165.2c0.5-1,1.8-1.1,2-2.3l0.2-0.2c1.3,0,1.8-1.6,3-1.7v0.5c-0.9,1.3-2.8,1.8-3.4,3.4L71.3,165.2z"/>
<path class="st4" d="M84.8,164.7c0.3-0.4,0.7-0.3,1.1-0.4c2.3-0.6,2.3-0.6,3,1.8c-1.5-0.1-2.6-1.1-4-1
	C84.8,164.9,84.8,164.8,84.8,164.7z"/>
<path class="st11" d="M28.5,158.8c-1.7-0.5-2.6-2.4-2.1-4.1c0,0,0-0.1,0-0.1C27.4,155.9,28.1,157.3,28.5,158.8z"/>
<path class="st11" d="M61.7,167.1c0-0.2,0-0.4,0.1-0.5c1.1-0.9,4.3-0.5,4.9,0.5l-0.5,0.1c-1.4-0.2-2.8-0.3-4.1-0.1L61.7,167.1
	L61.7,167.1z"/>
<path class="st14" d="M37.6,129.8v-2.3c0.1-1.1,0.2-2.1,0.3-3.2l0.6,0.7c-0.1,1.6-0.2,3.2-0.3,4.8L37.6,129.8z"/>
<path class="st7" d="M80.4,166.4l-1.2,1.4c0.1-0.9-1.2-1.8,0.1-2.4c0.6-0.2,1.1-0.2,1.1,0.7C80.4,166.2,80.4,166.3,80.4,166.4z"/>
<path class="st2" d="M65.8,174c-0.8-0.2-1.7,0.2-2.4-0.3c0.8-0.9,2.2-1.1,3.2-0.3l-0.1,1.3L65.8,174z"/>
<path class="st12" d="M49.1,165.9c0.3-0.3,0.6-0.7,1.1-0.2c0.4,0.9-0.1,1.5-0.4,2.3C48.6,167.7,49.1,166.7,49.1,165.9z"/>
<path class="st6" d="M80.4,166.4c0-0.1,0-0.2,0-0.4c0.8-1.3,2.1-1.4,3.5-1.1L80.4,166.4z"/>
<path class="st6" d="M109.4,147.8c1.1-0.3,1.2-1.4,1.7-2.1h0.1c0.3,0.1,0.3,0.3,0.3,0.5c-0.4,0.6-0.6,1.2-0.6,1.9
	c-0.6,0.2-0.6,1.1-1.3,1.2L109.4,147.8z"/>
<path class="st2" d="M86.5,177.4c1.1-0.9,2.4-1.5,3.7-1.9c-0.8,1.2-2.1,1.6-3.3,2.3L86.5,177.4z"/>
<path class="st14" d="M21.8,145.4c0.3,0.7,1,1.2,1.2,2c0,0.3-0.1,0.5-0.1,0.8c-0.4-0.2-0.6-0.6-0.8-1c-0.3-0.5-0.6-1-0.9-1.5
	l0.4-0.4C21.7,145.4,21.8,145.4,21.8,145.4z"/>
<path class="st2" d="M75.6,167.4c0.5,0.9,0.2,1.8,0.3,2.7l-0.5,0.1c-0.3-0.9-0.4-1.8-0.2-2.8L75.6,167.4z"/>
<path class="st4" d="M41.7,182.9c-0.7,0-1.4-0.5-1.5-1.2C41.2,181.6,41.5,182.2,41.7,182.9z"/>
<path class="st2" d="M66.2,167.2l0.5-0.1c0.3,0.2,0.3,0.6,0.1,0.8c0,0-0.1,0.1-0.1,0.1l-0.5-0.1L66.2,167.2z"/>
<path class="st13" d="M21.6,176.3c0.1-0.4,0.2-0.8,0.8-0.9C22.4,176,22.5,176.6,21.6,176.3z"/>
<path class="st2" d="M44.5,170.2l-0.3-0.3c0.1-0.1,0.2-0.1,0.4-0.2c0.1,0,0.2,0.1,0.2,0.2C44.9,170.1,44.7,170.2,44.5,170.2z"/>
<path class="st6" d="M62.4,169.5c0.5,0,0.9,0.2,1,0.7C62.9,170.2,62.4,170.2,62.4,169.5z"/>
<path class="st11" d="M29.1,159.9c-0.4,0-0.6-0.4-0.6-0.7c0,0,0,0,0-0.1C29,159.2,29.2,159.4,29.1,159.9z"/>
<path class="st2" d="M96.3,206.8c-0.3-0.2-0.4-0.4-0.1-0.7C96.6,206.3,96.6,206.6,96.3,206.8z"/>
<path class="st6" d="M62,169.5c0-0.4,0-0.9,0-1.3h0.5l-0.1,1.3L62,169.5z"/>
<path class="st6" d="M63.4,170.2l0.4,0.2L63.4,170.2z"/>
<path class="st2" d="M96.6,215.1c0-0.1,0-0.2,0-0.3C96.8,214.9,96.9,215,96.6,215.1z"/>
<path class="st6" d="M84.8,164.7c0,0.1,0,0.2,0,0.3c-0.1-0.1-0.1-0.1-0.2-0.2L84.8,164.7z"/>
<path class="st2" d="M51.7,164.7l0.6,0.1C52.1,164.9,51.8,164.9,51.7,164.7z"/>
<path class="st2" d="M108.8,177.8l0.2-0.3L108.8,177.8z"/>
<path class="st8" d="M1.6,148.8l0.3,0.5C1.7,149.2,1.6,149,1.6,148.8z"/>
<path class="st0" d="M37.2,133.2c-0.2-0.1-0.3-0.2,0-0.4V133.2z"/>
<path class="st2" d="M108.3,178.2l0.4-0.3L108.3,178.2z"/>
<path class="st15" d="M36,17.8c4.9-6.9,10.8-12.4,19.5-14.1l0.7-0.1h2.9c0.5,0.6,1.3,0.4,2,0.8c-0.1,1.4-2,1.3-2.3,2.8
	c1.4-0.7,2.5-1.6,3.7-1.7c1.7-0.1,1.9-0.9,1.7-2.1c1-0.8,2.3-0.5,3.4-0.8c3.3-0.6,6.7-0.5,10,0.3C84.9,4.6,90.1,9.7,95.1,15
	c0.9,0.8,1.6,1.8,2.1,2.9c-1,0.9-2.7,1.2-2.6,3c0.1,0.7,0.2,1.5,0.3,2.2c0.4,1.6,0.9,3.1,2.5,3.8s3-0.2,4.1-1.3l0.3-0.2
	c0.3,0.6,0.6,1.2,0.9,1.9c1.9,5.4,3.3,10.9,3.9,16.6c0.5,5,1.2,10,2.3,14.9c0.5,2.4,0.6,5,1.8,7.3c0.3,2.8,1.3,5.4,1.9,8.1
	c-0.2,2.6,0.2,5.3,1.4,7.7l0.7,3.8c-0.8,0.2-1.1,0.8-1.3,1.7c-0.7-0.8-1.3-1.8-2.4-0.8c0,0-0.5-0.1-0.6-0.3c-0.6-0.9-0.6-0.9-1-1
	l0,0c0-0.5,0-0.9,0-1.4c0.2-1.6-0.5-2.2-2.1-2.1c-0.3,0-0.7,0-1,0c0-0.2,0-0.4,0-0.7c0.5-0.5,0.1-0.6-0.3-0.7l-1.8-15.6
	c0.9-3.7,0.6-7.2-1.8-10.3c-0.7-2.5-1.8-4.9-3.4-7.1c-2.1-3.2-3.9-6.5-5.5-10c-1.2-2.5-2.3-5.1-3.5-7.6c-0.2-0.4-0.3-0.9-0.9-0.9
	l0.1-1.8c0.4,0,0.8,0.2,0.8,0.5c0.4,2,1.7,1.6,3.1,1.3c0.8-0.2,1-1,1.8-1.1c0,0.4,0,0.8,0.1,1.2c1.7,4.4,2.5,9,4.2,13.4
	c0.1,0.4,0.3,0.9,1,1c-1.4-5.2-2.9-10.4-4.3-15.6c-0.1-0.4-0.5-0.7-0.9-0.6c-0.4-1.7-1.2-3.3-2.3-4.6c-1.2-1.3-2.2-0.9-3.3-0.5
	c-0.9,0.4-0.2,1.2-0.1,1.9s0.6,1.5-0.5,1.9c0-0.1,0-0.3,0-0.4c0.2-0.1,0.4-0.3,0.2-0.5s-0.3,0.1-0.5,0.2c-0.6-0.9-1.2-1.8-2-2.5
	c-0.1-0.5-0.2-0.9-0.3-1.3C82.5,15.1,78.1,9.6,71.7,6c-2-1.1-4.3-1.5-6.5-1.1c0.6,0.8,1.2,0.5,1.6,0.6C68.5,5.6,70,6,71.4,6.8
	c4.1,2.3,7.2,5.6,10.1,9.2c1.6,2,3.2,4,3.8,6.6c-0.6,0.7-1.8,0.6-2.4,1.4c-0.9,1-1,2.5-0.2,3.6c1.1,1.3,2.4,2.9,4.6,2.4
	c0.5-0.1,1.1,0,1.4-0.6c0.2,0.2,0.3,0.3,0.4,0.5c2.7,6.5,5.9,12.8,9.8,18.7c1,1.5,2.2,3,2.2,5c-0.8-0.7-1.8-1-2.9-1
	c-7.7,0.7-13.3-3-18.3-8.2l-2-2.2l6.6,0.5C86,47,92.2,52,95.5,51.7c-0.5-0.5-1.1-0.9-1.7-1.1c-3.1-1.3-5.3-3.8-7.5-6.1
	c-0.4-0.4-0.9-1.1-0.8-1.4c0.6-1.5-0.8-0.2-0.9-0.7c-1.7-1.3-3.9-1.9-6.1-1.7c-0.7,0.1-1.4-0.3-1.6-1c-1-2.4-2-4.7-3-7
	c-1.2-4.8-2.7-9.6-4.7-14.1c1,4.8,2.3,9.6,4,14.2c0.6,2.3,1.5,4.6,2.6,6.7c0.5,0.9,0.4,1.5-0.6,2c-2.6,1.3-3.5,1.2-5.2-1.1
	c-1.1-1.4-2-2.8-3-4.2c0-0.4-0.3-0.9-0.6-1.1c-0.2-1.9-1.3-3.6-1.4-5.5c0.2,0.1,0.6,0.1,0.8,0.3c0.4,0.7,1.4,1,2.1,0.6
	c0.7-0.3,0.6-1,0.6-1.7c0-2.2,0-2.2-2-1.7c-0.2,0-0.3,0-0.5,0c-1,0-1,0.6-0.5,1.1c1.1,1-0.4,0.6-0.5,1h-0.4v-0.7
	c-0.5-3.6-0.8-7.3-0.9-10.9c-0.4,0.2-0.6,0.4-0.7,0.6c-0.3,2.9-0.2,5.9,0.2,8.9c-0.3,0-0.7,0-1-0.1c-1.6-0.7-1.8,0.4-1.8,1.5
	c0,2.2,1.7,1.2,2.8,1.4c0,0.2,0.1,0.3,0.1,0.5l0.3-0.2c0.6,3.1,1.6,6.2,2.9,9.1c0.2,0.5,0.4,1.1,1.1,1l0-0.1
	c-0.5,1.4,0.7,2.2,1.4,3.1c1.3,1.6,2.8,2.8,4.6,3.7c-6.4,0.9-12-4.9-14.5-10.3c-0.3-2.2-1.6-4.1-2.2-6.3c-0.2,2.2,0.3,4.4,1.5,6.3
	c0.2,0.7,0.5,1.4,0.8,2c0.6,1.3,1.7,2.4,2,3.9c-1.3-0.4-1.8-1.5-2.4-2.5c-2.1-3.3-3.2-7.2-3.1-11.1c0-3.6-0.1-7.1,0.7-10.7
	c-0.9,0.8-1.2,1.3-1.3,3c0,1.6-0.6,3.1-1.9,4.2c-1.8,1.5-2.7,3.8-3.6,6c-2.2,5.6-5.5,10.6-9.9,14.8c-2.5,2.3-5.4,4.2-8.4,6.5
	c1.2-5.9,3-11.2,4-16.7c1.1-2.4,1.9-5,2.4-7.6l0.7-0.1c1.7,1.4,5.5-0.1,5.9-2.3c0.6-2.8-0.7-4.9-2.9-4.9c0.8-2,2.2-3.8,3.1-5.7
	c-1.5,1.5-3.1,2.9-3.8,5h-1.3C38,20,37.1,18.7,36,17.8z M75.5,26.6c-0.3,0.9,1.6,0.3,0.6,1.3c-0.7,0.7-0.5,1.1,0.1,1.7
	c0.2-0.7,1.2-0.3,1.4-1c0.1-0.4,0.6-1,0.1-1.4C77.1,26.5,76.2,26.3,75.5,26.6z M48.1,28.7c0-0.9,1.1-1.2,1-2.2
	c0-0.3-0.3-0.9-0.8-0.7c-0.6,0.4-1.4,0.9-1.4,1.7C46.9,28.1,47.3,28.5,48.1,28.7L48.1,28.7z"/>
<path class="st9" d="M45.4,41.2c2.3-3.6,4.2-7.4,5.8-11.3c0.7-1.8,1.8-3.3,3.2-4.5c0.1,2.8-0.2,5.3,0.4,7.7
	c1.2,5.1,3.1,9.8,8.1,12.4c0.5,0.4,1.2,0.7,1.9,0.6c0.9-0.1,1.7,0.2,2.4,0.7c2.9,1.7,5.8,1.4,9.1,0.4c-0.3-0.2-0.7-0.4-1-0.6
	c-3.1-0.9-5.8-3-7.2-5.9c-0.1-0.2-0.3-0.5-0.6-0.5l0,0l0.1-0.3c0.1,0,0.2,0,0.3-0.1c2.9,2.9,6.4,5.1,10.1,6.7
	c1.1,0.5,2.3,0.9,3.5,1.5c-2.2,0-4.4-0.1-6.3,1.4c0.1,0.6,0.8,0.3,1.2,0.7c-1.9,0.8-3.2,2.6-3.6,4.6c1.2-0.3,1.6-1.4,2.7-2.1
	c-0.7,2.6-1.2,5.1,0,7.6c0.9,3,3.8,4.3,7.1,3.1c3.6-0.4,4.8-2.1,5.3-5.4c1.9-0.2,2.3-1.9,3.2-3.1c0.3-0.2,0.5-0.4,0.6-0.8h2.7
	l0.3,0.1c-0.3,1.4-0.7,2.8-1.3,4.1l-0.1,0.7v0.4c-0.7,1.2-0.9,2.6-0.8,4c0.7-1,1.2-2.2,1.3-3.5c0.9-1,0.9-2.3,1.5-3.4
	c1.5-3,4.4-3.2,6.4-0.5c2.7,3.5,1.9,10.3-3.1,13.1c-2.2,1.1-4.6,1.8-7.1,2c-1.3,0.2-0.7-0.9-1-1.5c-1.2,2-2.3,4.1-3.6,5.9
	c-2.5,3.5-6.2,5.4-10.1,6.8c-2,0.8-4,1.4-6,2c-3,0.9-6.2,1-9.2,0.4c-1.5-1.1-3.4-0.9-5-1.4c-4.1-1.3-8.1-2.8-11.2-5.9
	c-1.9-2.1-3.4-4.5-4.6-7.1c-0.4-0.8,0-1.8-1-2.4c-0.3,0.8-0.1,1.8,0.4,2.4c0,0.5-0.3,0.7-0.8,0.7c-7-1.1-11.5-6.9-8.9-13.7
	c0.4-1,1.1-1.8,2-2.3c2.1-1.1,3.3-0.7,4,1.5c0.4,1.2,0.7,2.5,1,3.8L37,59.6c-0.5-0.8-1.4-1.4-2.3-1.5c-0.6-0.2-1.4-0.1-1.5,0.6
	s0.8,0.3,1.2,0.4s0.7,0.1,1,0.1c0.1,0.8-0.1,1.7-0.6,2.4c-0.9,1.6-0.6,3.2,0.7,3.8c1.1,0.6,2.4,1,3.7,1c0.6,0.6,0.8,0.2,0.8-0.4
	c-0.1-1.2-0.4-2.3-0.8-3.4v-0.6L39,61.6c-0.4-3-1.5-5.9-1.7-8.9c-0.1-1.9,0-3.4,1.8-4.6c1.7-1.2,3.2-2.7,4.3-4.4
	c0.4-0.6,1.1-0.9,1.8-0.9c2.6-0.4,5.2-0.3,7.7,0.3c0.5,0.1,1,0.2,1.5,0.3c0.3,0.1,0.6,0,0.8-0.2c0.2-0.3,0.1-0.7-0.2-0.9
	c-0.7-0.7-1.6-1.2-2.6-1.3c-2.3-0.4-4.6-0.2-6.8,0.6C45.5,41.4,45.4,41.3,45.4,41.2z M70.9,72.7c0.8-0.2,1.5-0.6,2.2-1.1
	c0.3-0.3,0.6-0.6,0.2-1c-0.2-0.2-0.5-0.2-0.7,0c-0.1,0.1-0.1,0.1-0.1,0.2c-0.4,0.9-1.3,1-2,1.4l-3.6,1.1
	C68.2,73.7,69.7,73.5,70.9,72.7z M93.8,62.7c-0.4,0.1-0.3,0.4-0.4,0.7c-0.5,1-0.9,2.4,0.2,2.9c1.8,0.8,3.9,0,4.8-1.8
	c0.1-0.3,0.2-0.6,0.3-1c0.1-1.6-1.2-2.4-1.5-3.7c0.7-0.8,1.9-0.3,2.9-0.8C98,57.3,94.5,59.5,93.8,62.7L93.8,62.7z M50.3,64.1
	c2-0.7,4-1.2,4.9-3.5c1.1-2.1,0.8-4.2,0.5-6.4c0.1-0.1,0.2-0.1,0.2-0.2c0.5-1.1,0.5-1.1-1-2.9l0.5-0.4c1.4-0.3,0-0.7,0-0.8
	c-3-2.6-8.1-2.3-11.5,0.9c-0.8,1-2.1,1.4-3.4,1.2c0.6,0.5,0.9,1,0.7,1.4c-0.6,1.1-1.8-0.1-2.7,0.8c1.5,1,2,3,3.8,3.5
	c0.4-0.4,0.1-0.8,0.1-1.2c0.5,0.2,0.4,0.6,0.5,1c0.1,1.1,0.4,2.1,0.7,3.1C44.7,63.7,47.4,64.1,50.3,64.1L50.3,64.1z M62.7,64
	c0.2,0.8,0.3,1.8,1.3,1.8c1,0,1.9-0.8,2-1.8c0.1-0.7-1.5-3-1.9-2.8C62.8,61.7,63.2,63.1,62.7,64L62.7,64z M64.5,73.5
	c-2.5-0.7-4.9-0.6-6.5-2.6c-0.1-0.2-0.4-0.3-0.6-0.1c-0.1,0-0.1,0.1-0.1,0.1c-0.4,0.6,0.1,0.9,0.4,1.1
	C59.7,73.3,62.1,73.9,64.5,73.5L64.5,73.5z"/>
<path class="st9" d="M60.3,106c-0.4-0.2-0.8-0.5-1.4-0.3l-0.7-0.1l0,0c-0.2-0.3-0.6-0.4-1-0.3c-2.8-1.2-5.7-2.2-8.7-2.8
	c-1-0.2-2-0.8-2.7-1.5c4.2,0.2,7.5-1.4,10.9-2.7c3.2-1.2,5.1-3.1,4.8-6.7c0-0.3,0.1-0.5,0.2-0.8c0.7-0.1,1.4,0.1,1.9,0.6
	c2.8,1.7,4.9,1.5,7.5-0.5c0.2-0.2,0.6-0.4,0.9-0.4c-0.2,5,2.8,7.3,7,8.6c2,0.6,4,1.7,6.2,1.5c0.3,0,0.6,0.1,0.6,0.5
	c0,0.3-0.3,0.4-0.5,0.5c-1.5,0.8-3.2,1.2-4.9,1c-3.7,2.2-7.9,2.9-12.1,3.4C65.6,106.1,62.9,106.1,60.3,106z"/>
<path class="st6" d="M84.1,98.7c-3.2,0.1-5.9-1.1-8.6-2.5c-1.6-0.8-1.9-2.6-2-4.2c-0.2-2.1-0.1-4.1-0.1-6.2c0-0.6,0.1-1.2,0.9-1.3
	c1-0.2,2-0.6,2.9-1c0.1,3.1,0.2,6.2,0.4,9.2c-0.1,1.6,0.5,3.1,1.6,4.3c-1-3.1-1-6.3-1-9.5c0.1-1.4,0-2.7-0.3-4.1
	c4-1.2,7.5-3.6,10-6.9c0.2-0.2,0.4-0.4,0.7-0.4l0,0c-0.5,4.6-1,9.2-1.5,13.7c-0.2,1.4-0.4,2.8-0.5,4.2c-0.2,2.9-1.8,3.7-4.3,2.1
	c-0.8-0.5-1.5-0.9-2.6-1.5c0.8,2.4,2.8,2.7,4.4,3.5L84.1,98.7z"/>
<path class="st14" d="M84.1,98.7v-0.4c4.9-0.4,7.5-3.6,9.3-7.7c0.2-0.5,0.4-1,0.6-1.6c1.2-0.1,2.2,0.1,2.6,1.5s1.2,1.6,2.4,0.9
	c0.5,4.3,1,8.5-1.4,12.5c-0.9,1.3-2.2,2.2-3.7,2.7c-2,0.7-4,0.5-6.3,0.4c0.8-1.1,2.5-0.2,2.7-1.7l0,0l0.4-0.5
	c0.4-0.7,0.6-1.5,1.8-1.1c0.7,0.2,0.6-0.5,0.5-0.9c-0.2-0.6-0.2-1.2,0-1.8c0.3-0.7-0.2-1.1-0.7-1.4c-0.7-0.4-1.4-0.8-2-1.2
	c0.1-0.4,0.6-0.7,0.1-1s-0.5,0.3-0.7,0.5c-1,0.9-2.4,1.2-3.6,1.9c-0.4,0.2-1.2,0.3-1.3-0.6c0.3-0.1,0.3-0.2,0-0.3L84.1,98.7z"/>
<path class="st15" d="M99.1,91.4c-1.2,0.6-2.1,0.4-2.4-0.9s-1.4-1.6-2.6-1.5c0-0.7,0.2-1.4,0.5-2c1,0.1,1.1-0.6,1.2-1.3
	s-0.5-0.4-0.9-0.5c0.3-4.3,0.8-8.6,0.7-12.9c0-0.1,0-0.2,0-0.3c1.6-1.1,3.4-2,5.2-2.8c0.2,0.2,0.3,0.5,0.3,0.8
	c0.6,4.8,1.1,9.7,1.7,14.5c-0.8,0.1-0.9,0.7-1.1,1.3c-0.2,0.8-0.3,1.7-1.6,0.9c-0.9-0.4-2-0.2-2.6,0.6c-0.6,0.7,0.2,1.6,0.9,2.1
	c0.2,0.2,0.4,0.4,0.6,0.6L99.1,91.4z M96.5,88.7c0.1-0.1,0.3-0.2,0.3-0.4c0-0.1-0.2-0.2-0.3-0.3c-0.2,0-0.5,0.1-0.4,0.4
	C96.1,88.5,96.3,88.5,96.5,88.7z"/>
<path class="st6" d="M88.6,76.2c0.6-1.3,1.1-2.6,1.8-3.8c0.3-0.5,3.6-0.9,4.1-0.6c0.3,0.2,0.4,0.6,0.4,0.9c-0.2,5.7-0.5,11.4-2,17
	c-0.5,1.7-1.6,3.2-3,4.3c1.5-3.7,2.3-7.5,2.6-11.4c-1.4,4.6-2.2,9.5-5.4,13.5c0.3-2.4,0.5-4.8,0.9-7.1c0.5-3.1,0.6-6.3,0.9-9.4
	c0-0.6,0.1-1.3,0.2-1.9C89.3,77.1,89.6,76.4,88.6,76.2L88.6,76.2z"/>
<path class="st14" d="M106.3,81.7c0.3,0,0.7,0,1,0c1.5-0.1,2.3,0.5,2.1,2.1c0,0.5,0,0.9,0,1.4c-0.3,0-0.5,0-0.5,0.4
	c0,0,0.1,0.1,0.1,0.1c0.4,0,0.4-0.3,0.4-0.5c0.5,0.1,0.5,0.1,1,1c0.1,0.2,0.5,0.3,0.6,0.3c1.1-1,1.6,0,2.4,0.8
	c0.2-0.9,0.5-1.5,1.3-1.7c0.4,0.9,0.7,2,0.7,3c-0.9,0.6,0.1,1.2,0,1.8c-0.5,1-0.7,2-0.6,3.1c-0.1,2-0.3,4-1.7,5.5
	c-0.4-0.5-0.7-1.1-1-1.7c-0.5-1.4-2-0.7-2.5-1.6c-0.5-0.8-1.4-1.3-2.4-1.2c-0.3-1.5-0.4-3-0.3-4.5c0.5-0.7,0.3-1.4,0.2-2.1
	C106.7,85.8,106.5,83.8,106.3,81.7z"/>
<path class="st8" d="M112.5,74.1c-0.6-2.7-1.5-5.3-1.9-8.1l0.6-0.5c0.8,1.4,1,3,2,4.2l0,0c0,0.1,0,0.2,0.1,0.3l4,7.6
	c1.8,3.6,3.2,7.4,4.3,11.2c0.3,1.2,0.2,2.4,0.5,3.5c-0.4,1.6-0.3,3.4-0.9,5c-0.5,1.5-1.2,2.8-2.1,4.1c-0.1-0.6-0.1-1.3,0.1-1.9
	c0.4-2.3,0.4-4.6,0-6.8C118,86.2,114.6,80.3,112.5,74.1z"/>
<path class="st10" d="M72,90.4c-0.3,0-0.7,0.2-0.9,0.4c-2.6,2-4.6,2.1-7.5,0.5c-0.5-0.4-1.2-0.7-1.9-0.6c0.2-2.1-0.7-4.2,0-6.3
	c3.1,0.6,6.2,0.5,9.2-0.4c0.5,0.3,0.8,0.8,0.8,1.4C71.9,87.1,72,88.8,72,90.4z"/>
<path class="st6" d="M107,94.5c1-0.1,1.9,0.4,2.4,1.2c0.5,0.9,2,0.2,2.5,1.6c0.3,0.6,0.6,1.2,1,1.7l0,0c-0.3,0.2-0.8,0.2-0.3,0.7
	c-0.3,1-0.9,1.9-1.7,2.5c-3,3.1-7.2,4.7-11.6,4.5c-0.1-0.2,0-0.4,0.2-0.5c0,0,0.1,0,0.1,0c4.8-1.7,6.6-5.5,7.1-10.2
	C106.6,95.5,106.7,95,107,94.5z"/>
<path class="st0" d="M82.1,105.9h-0.3c-0.7-0.1-1.4,0.1-2,0.4c-3,1.3-6.2,2-9.5,2.4c-2.9,0.4-5.8,0.4-8.7,0
	c-3.7-0.2-7.2-1.4-10.8-2.4c0.8-1.4,1.8-1.9,3.5-1c1.9,0.9,3.9,1.4,5.9,1.6c5.3,0.7,10.6,0.2,15.7-1.3c1.6-0.5,3-1.4,4.7-1.6
	C80.9,104.8,81.7,105.2,82.1,105.9z"/>
<path class="st6" d="M112.5,74.1c2.1,6.3,5.5,12.1,6.7,18.7c0.4,2.3,0.4,4.6,0,6.8c-0.2,0.6-0.3,1.2-0.1,1.9c-1.2,1.2-2.8,1.9-4.5,2
	c0.1-0.3,0.1-0.6,0.3-0.8c2.5-2.5,2.9-5.8,2.7-9.1s-1.3-6.5-2.4-9.7c-0.3-0.8-0.3-1.9-1.3-2.2C112.8,79.4,112.3,76.7,112.5,74.1z"/>
<path class="st6" d="M105.9,92.4c1,1.6-0.1,3-0.4,4.4c-0.6,3.6-2.8,6.8-6.1,8.5c-0.3,0.2-0.6,0.4-0.9,0.1s-0.1-0.7,0-0.9
	c1.8-2.5,1.8-5.4,1.9-8.2c0.7,0,1.1-0.1,0.9-0.9c-0.1-0.4-0.1-0.7,0.4-0.7c1.3,0,1.3-1,1.5-1.8h0.6c0.2,1.5,0.2,1.5,1.6,1
	C103.6,92.6,105.8,92.9,105.9,92.4z M102.5,95.7c0,0-0.1,0-0.1,0s0,0.1,0,0.1c0,0,0.1,0,0.1,0C102.5,95.8,102.5,95.7,102.5,95.7z"/>
<path class="st15" d="M90.3,98.3c0.7,0.4,1.4,0.8,2,1.2c0.5,0.3,1,0.8,0.7,1.4c-0.2,0.6-0.2,1.2,0,1.8c0.1,0.4,0.2,1.1-0.5,0.9
	c-1.1-0.4-1.4,0.5-1.8,1.1l-0.4,0.5l0,0c-1.1,0.2-2.2,0.5-3.3,0.7c-2.3,0.5-3.8-0.2-5.1-2.4C85.8,103.4,88.1,101,90.3,98.3z"/>
<path class="st15" d="M101.7,70c-0.2-1.3,0.4-2.7,1.4-3.5c0.4,0.8,0.7,1.7,0.7,2.6c0.4,3.8,1.1,7.6,1.3,11.3
	c0.1,2.4,0.7,4.8,0.5,7.2h-1.7c-0.3-2.5-0.4-5.1-0.8-7.6C102.5,76.7,102.6,73.2,101.7,70z"/>
<path class="st14" d="M103.2,92.8c-0.2,0.8-0.2,1.8-1.5,1.8c-0.5,0-0.5,0.3-0.4,0.7c0.3,0.8-0.2,1-0.9,0.9c-0.3-2.1-0.1-4.3-1.4-6.2
	c-0.2-0.2-0.4-0.4-0.6-0.6c-0.8-0.5-1.5-1.4-0.9-2.1c0.6-0.8,1.7-1,2.6-0.6c1.3,0.8,1.4-0.1,1.6-0.9c0.1-0.7,0.2-1.3,1.1-1.3
	c0.3,0.8,0.4,1.7,0.4,2.5C103,88.9,103,90.9,103.2,92.8z"/>
<path class="st2" d="M101.1,53.7c0-2-1.1-3.5-2.2-5C95,42.8,91.7,36.6,89.1,30c-0.1-0.2-0.2-0.4-0.4-0.5c0-0.2,0-0.4,0-0.6
	c0.1,0,0.2,0,0.3,0c0.6,0,0.7,0.5,0.9,0.9c1.2,2.6,2.3,5.1,3.5,7.6c1.6,3.5,3.5,6.8,5.5,10c1.6,2.1,2.7,4.5,3.4,7.1
	C101.8,54.4,101.5,53.9,101.1,53.7z"/>
<path class="st6" d="M105.6,87.6c0.3-2.4-0.4-4.8-0.5-7.2c-0.1-3.8-0.8-7.6-1.3-11.3c0-0.9-0.3-1.8-0.7-2.6c0.1-0.7,0.5-1.3,1-1.7
	c0.6,5.2,1.2,10.4,1.8,15.6c-0.1,0.3,0,0.6,0.3,0.7c0,0.2,0,0.5,0,0.7c0.2,2,0.4,4.1,0.6,6.1c0.1,0.7,0.3,1.5-0.2,2.1l-0.7,0
	C105.7,89.3,106.2,88.3,105.6,87.6z"/>
<path class="st8" d="M87.9,57.9c-0.5,3.3-1.7,5.1-5.3,5.4l0.1-0.4c0.5-0.1,0.8-0.5,1.1-0.9l0,0c0.2,0,0.5-0.2,0.5-0.4
	c0.2-0.2,0.2-0.4,0.2-0.6c0.4-0.1,0.4-0.4,0.3-0.7c0-0.1,0.1-0.2,0.1-0.3c0.5-0.3,0.7-0.9,0.6-1.4c0.5-2.3-0.2-4.7-1.9-6.4
	C86.5,52.9,87.9,54.8,87.9,57.9z"/>
<path class="st3" d="M115.2,90.4c0.2-0.6-0.9-1.2,0-1.8c1.4,2,1.6,4.4,1.6,6.7c0.1,1.9-0.4,3.7-1.3,5.3c-0.8,1.3-1.7,2.7-3.7,2.1
	c0.7-0.8,1.3-1.7,1.9-2.6c1.3-2.5,1.9-5.3,1.5-8.1C115.2,91.4,115.2,90.9,115.2,90.4z"/>
<path class="st6" d="M80.7,103.9c-1.7,0.2-3.1,1.1-4.7,1.6c-5.1,1.5-10.4,2-15.7,1.3V106c2.7,0.1,5.3,0.1,8-0.1
	c4.2-0.5,8.4-1.2,12.1-3.4C80.4,103,80.5,103.4,80.7,103.9z"/>
<path class="st2" d="M111.9,102.7c1.9,0.5,2.9-0.8,3.7-2.1c1-1.6,1.4-3.4,1.3-5.3c0-2.3-0.2-4.7-1.6-6.7c0-1-0.2-2.1-0.7-3
	c-0.2-1.3-0.5-2.5-0.7-3.8c1.1,0.3,1.1,1.4,1.3,2.2c1.1,3.1,2.3,6.3,2.4,9.7s-0.3,6.5-2.8,9c-0.2,0.2-0.2,0.5-0.3,0.8
	C113.5,103.9,112.4,104.4,111.9,102.7z"/>
<path class="st2" d="M103.2,92.8c-0.1-1.9-0.1-3.8,0-5.8c0.1-0.9,0-1.7-0.4-2.5L101.1,70h0.6c0.8,3.3,0.8,6.7,1.4,10
	c0.5,2.5,0.5,5.1,0.8,7.6l-0.1,5.2L103.2,92.8z"/>
<path class="st15" d="M82.8,62.9l-0.1,0.4c-3.3,1.2-6.2,0-7.1-3.1c0.4-0.2,0.3-0.6,0.4-0.9c0.3-1.1,0.8-0.8,1.3-0.1
	c-0.1,0.7,0.2,1.1,1,1l0.8,0.6c-0.1,0.6,0.7,0.8,0.7,1.4l-0.1,0.1l0.1-0.1c1-0.4,2.2,0.6,3.1-0.3l0,0L82.8,62.9z"/>
<path class="st6" d="M73.1,32.7c-1.7-4.6-3-9.4-4-14.2c1.9,4.6,3.5,9.3,4.7,14.1L73.1,32.7z"/>
<path class="st6" d="M84.5,42.3c0.1,0.4,1.4-0.8,0.9,0.7c-0.1,0.3,0.4,1,0.8,1.4c2.3,2.3,4.4,4.8,7.5,6.1c0.7,0.2,1.3,0.5,1.7,1.1
	c-3.3,0.3-9.6-4.7-10.9-8.9L84.5,42.3z"/>
<path class="st14" d="M103.8,92.8l0.1-5.2h1.7c0.7,0.7,0.2,1.6,0.4,2.5c0,0.8,0,1.6,0,2.4c-0.2,0.4-2.3,0.1-0.5,1.3
	C104,94.2,104,94.2,103.8,92.8z"/>
<path class="st2" d="M67.9,39.9c-0.1,0-0.2,0.1-0.3,0.1c-0.2,0.1-0.3,0.2-0.1,0.4l0,0c-0.8,0.1-0.9-0.5-1.1-1
	c-1.3-2.9-2.3-6-2.9-9.1v-0.3v-0.3c0.3-0.4-0.3-0.7-0.3-1h1.3c0,0.2,0,0.4,0,0.7c-0.5,1.8,0.4,3.4,1,5c0.1,0.4,0.2,0.9,0.9,0.8
	c0.4,0.2,0.6,0.7,0.6,1.1c-0.8,0.8-0.1,1.5,0.3,2.1S68,39.2,67.9,39.9z"/>
<path class="st2" d="M77.9,83.5c0.3,1.3,0.4,2.7,0.3,4.1c0,3.2-0.1,6.4,1,9.5c-1.1-1.1-1.7-2.7-1.6-4.3c-0.1-3.1-0.3-6.1-0.4-9.2
	L77.9,83.5z"/>
<path class="st6" d="M82.8,62c-1,1-2.1-0.1-3.1,0.3l0,0c0.1-0.6-0.8-0.8-0.7-1.4c1.8,0.9,2.7-0.5,3.6-1.6c0.6-1,1.9-1.3,2.9-0.8
	c0.1,0.6-0.1,1.1-0.6,1.4c0-0.3,0.1-0.7-0.3-0.9c-0.2,0-0.4,0.1-0.6,0.2C83.7,60.3,82.6,60.8,82.8,62z"/>
<path class="st15" d="M79.6,46.2c-2.2-0.5-4-1.9-6.1-2.9c3.1-1.1,3.1-1.1,5.1,1.3c0.4,0.5,0.8,1,1.1,1.5
	C79.7,46.1,79.6,46.2,79.6,46.2z"/>
<path class="st15" d="M93.9,59.7c-0.1,1.3-0.6,2.5-1.3,3.5c-0.1-1.4,0.2-2.8,0.8-4C93.5,59.4,93.7,59.6,93.9,59.7z"/>
<path class="st11" d="M91.8,54c-0.1,0.3-0.3,0.6-0.6,0.8c-0.5-1.2-2.3-0.8-2.5-2.4C89.8,52.7,90.9,53.2,91.8,54z"/>
<path class="st14" d="M94.9,85.2c0.4,0.1,1-0.1,0.9,0.5s-0.2,1.4-1.2,1.3C94.6,86.3,94.8,85.8,94.9,85.2z"/>
<path class="st6" d="M78.2,60.3c-0.8,0.1-1.1-0.3-1-1c0.5,0,1,0.3,1,0.8C78.2,60.2,78.2,60.3,78.2,60.3z"/>
<path class="st14" d="M112.5,99.7c-0.5-0.5,0-0.6,0.3-0.7L112.5,99.7z"/>
<path class="st15" d="M93.4,58.9l0.1-0.7C93.7,58.5,93.8,58.7,93.4,58.9z"/>
<path class="st11" d="M94.8,54.1L94.5,54C94.6,53.8,94.8,53.8,94.8,54.1z"/>
<path class="st15" d="M79.7,46.1c0,0.1,0.2,0.2,0.2,0.2c-0.1,0.2-0.2,0-0.3,0C79.6,46.2,79.6,46.2,79.7,46.1z"/>
<path class="st6" d="M84.8,98.7c0.3,0.1,0.3,0.2,0,0.3C84.8,98.9,84.8,98.8,84.8,98.7z"/>
<path class="st15" d="M25.7,50.7c1.1-5.1,1.2-10.3,2.4-15.3c0.7-3.5,1.8-6.9,3.5-10c0.2,0.7,0.6,1.2,1.2,1.6c2.3,1.2,3.3,0.9,5-1.8
	c0.6,0.4,0.3,1,0.4,1.6c0,0,0,0.1,0,0.2c0,0,0,0,0,0c-0.8,0.3-0.7,1.2-1.1,1.8c-1.2,2.4-1.7,5.1-2.6,7.6c-1.3,4.9-2.9,9.8-3.8,14.7
	c-0.8,4.2-2.8,8.1-2.2,12.5c-0.9,4.1-1.5,8.3-1.9,12.5c1.1-4,1.9-8.1,2.3-12.2c0.6,1.1,1.1,2.3,1.5,3.5c-0.6,0.4-0.6,1.2-0.8,1.8
	c-0.9,4.6-1.8,9.1-2.7,13.7c-0.4,2.3-0.8,4.6-1.1,6.9c-1.1,0.9-2.4-1.7-3.5,0.2c-0.2-0.2-0.4-0.3-0.6-0.5c-0.5-0.2-0.3-1-0.8-1.3
	c-0.8,0.9,0.6,1.6,0.1,2.2c-1.6,1.6-0.2,3.3-0.4,5c0.3,1.7,0.6,3.5,0.7,5.2c-0.8-0.1-0.9-0.8-1.2-1.4c-1.8-3.4-2.4-7.4-1.6-11.1
	c0.1-0.5,0.1-0.6-0.5-0.5s-0.2-0.6,0-1c0.9-1.8,1.6-3.7,0.9-5.8l0-0.1l0.1-0.1c0.4-0.2,0.2-0.6,0.4-0.9c0.4-1.2,0.8-2.4,1.2-3.5
	c0.9-3.1,2.2-6.1,2.3-9.4l0.2-0.4l0.1-0.6c0.1-0.2,0.8-0.4,0-0.7c0.4-0.3,0.4-0.7,0.5-1.1C24.8,59.5,25.5,55.1,25.7,50.7z
	 M24.5,88.1c0.1,0,0.2,0.1,0.3,0.1s0.1-0.2,0.1-0.3s-0.2-0.1-0.3-0.1S24.5,87.9,24.5,88.1L24.5,88.1z"/>
<path class="st14" d="M39.2,92.8c0.8,2.8,3,4.1,5.5,5.1c1.7,0.7,3.5,0.9,5.2,0.7c0,0.2,0,0.5,0,0.7c-3.1,1.7-5.5,0-8.1-1.5
	c0.7,1.7,2,3.2,3.6,4.2c1.2,0.9,2.5,1.5,4,1.8c0.4,0.1,0.9,0.1,0.9,0.5s-0.4,0.7-0.7,0.9c-0.9,0.7-2,1.1-3.2,1l-4.3-1.2
	c1.1,1,2.5,1.6,4,1.5c-2.4,1.5-4.9,0.7-7.2,0c-2.8-0.8-4.1-3.3-5.5-5.6c-0.3-3.3-0.6-6.6-0.5-9.9c-0.5,1.2-1.2,2.4-0.9,3.7
	c-0.8-0.2-2,0.7-2.3-0.9c-0.8,0.3-1.6-0.5-2.2-0.3s-0.1,1.1-0.3,1.7s-0.4-0.2-0.6-0.1c0-4,0.4-7.9,1.4-11.7c0.7,0.1,0.6-0.8,1.2-0.9
	c0,1.5,1.8,0.7,2.2,2s1.3,2.5,3.1,1.5c0.3-0.2,0.9-0.1,1.4-0.1c0.5,2.2,1.5,4.3,2.8,6.2C38.6,92.6,38.7,92.9,39.2,92.8L39.2,92.8z"
	/>
<path class="st6" d="M54.4,96.9c-0.7,0.2-0.8,1.6-1.5,1.1c-0.9-0.6,0.5-1.5,0.2-2.4c-1.4,0.5-2.4,1.5-3.8,1.8c-2,0.4-2.5,0-2.9-1.9
	c-1.1-4.4-1.9-8.9-2.5-13.5c-0.3-1.5-0.5-3.1-0.5-4.7c1.5,0.5,2.2,1.8,3.2,2.7c2.4,2,5.3,3.4,8.4,4.1c0.6,0.1,0.8,0.3,0.6,0.9
	c-0.1,0.7-0.1,1.5-0.1,2.2C55.4,90.5,55.7,93.8,54.4,96.9z"/>
<path class="st6" d="M35.1,70.9c1.6,0,3.1,0.7,4.7,1c1.9,0.3,2.3,2.4,2.5,3.8c0.6,6.1,1.6,12.2,2.8,18.3c0.1,0.4,0.2,0.9-0.2,1.1
	s-0.6-0.3-0.8-0.7c-1.7-3.5-2.8-7.1-3.4-10.9c0-0.2-0.1-0.4-0.2-0.6c-0.4,4.7,1.3,9,3.6,13.4c-1.1-0.2-2.1-0.9-2.7-1.7
	c-0.5-0.7-1-1.6-2-1.7l0,0l-0.4-1C35.7,85.2,35.4,78.1,35.1,70.9z"/>
<path class="st15" d="M35.8,85.9c-0.5,0-1-0.1-1.4,0.1c-1.8,1.1-2.6-0.2-3.1-1.5S29,84,29,82.5c-0.7,0.2-0.5,1-1.2,0.9
	c0.2-1.2,0.4-2.4,0.5-3.6c0.7-4.2,1.5-8.5,2.2-12.7l3.8,3.1c-0.1,4.3,0.2,8.5,0.7,12.8c-0.6,0-1.3,0.1-1,0.9c0.4,1,0.8-0.5,1.3-0.1
	L35.8,85.9z M30.8,82.2c0-0.5-0.4-0.6-0.6-0.7s-0.6-0.3-0.9,0.3C29.8,82,30.2,82.4,30.8,82.2L30.8,82.2z M33,83.3
	c-0.3,0-0.3,0.3-0.3,0.5s0,0.5,0.3,0.5s0.3-0.3,0.3-0.5S33.3,83.4,33,83.3L33,83.3z"/>
<path class="st6" d="M21.2,100.4c-0.1-1.7-0.4-3.5-0.7-5.2c0.5,0,1-0.2,1.6-0.2c1.1,0,2.3,0.5,3.2-0.5c0,0.5,0.1,1,0.4,1.4
	c-0.5,2.8,0.9,5,2.5,7.1c1,1.3,2.4,2.4,3.9,3c-3.3,0.5-5.9,0.1-8.1-1.9C23.1,102.9,21.8,102,21.2,100.4z"/>
<path class="st6" d="M26.5,95.2c0.2,0,0.4,0.8,0.6,0.1s-0.5-1.4,0.3-1.7s1.4,0.6,2.2,0.3c0.3,1.5,1.5,0.6,2.3,0.9
	c0.2,2.1-0.4,4.2,0.7,6.2c0.2,1.4,0.8,2.6,1.8,3.6c0.3,0.3,0.7,0.7,0.4,1.2s-0.9,0.1-1.2,0c-4.1-1.7-6.8-5.6-7.1-10L26.5,95.2z"/>
<path class="st6" d="M56.5,87.2c0.3-0.9-0.7-2.2,0-2.5s2.1,0.3,3.1,0.5c0.4,0,0.7,0.3,0.6,0.7c0,0.1,0,0.1,0,0.2
	c-0.7,2.2,0,4.4-0.1,6.6c-0.2,2.6-1.7,3.4-3.5,4.2c-0.5,0.2-1,0.3-1.5,0.4C56.3,94.1,56.8,90.7,56.5,87.2z"/>
<path class="st2" d="M67.5,40.3c0.4,0,0.5,0.2,0.6,0.5c1.4,2.9,4.1,5.1,7.2,5.9c0.3,0.2,0.7,0.3,1,0.6c-3.4,1-6.3,1.3-9.1-0.4
	c-0.7-0.6-1.5-0.8-2.4-0.7c-1.1-0.8-1.9-2-3.1-2.6c0-0.2-0.1-0.5-0.3-0.5c0,0,0,0,0,0l0,0c0-0.2-0.1-0.3-0.3-0.3l0,0
	c-0.2-1.5-1.4-2.5-2-3.9c-0.3-0.6-0.6-1.3-0.8-2h0.6c2.6,5.4,8.2,11.2,14.5,10.3c-1.8-0.9-3.4-2.2-4.6-3.7
	C68.1,42.5,67,41.7,67.5,40.3L67.5,40.3z"/>
<path class="st2" d="M26.5,95.2l-0.1,0.7h-0.6c-0.3-0.4-0.4-0.9-0.4-1.4c-0.1-1.6,0-3.3,0.3-4.9c0.4-2.3,0.7-4.6,1.1-6.9
	c0.9-4.6,1.8-9.1,2.7-13.7c0.1-0.6,0.1-1.4,0.8-1.8c0.1,0,0.2,0,0.2,0c-0.7,4.2-1.5,8.5-2.2,12.7c-0.2,1.2-0.4,2.4-0.5,3.6
	C26.9,87.3,26.4,91.2,26.5,95.2z"/>
<path class="st10" d="M39.2,66.5c-1.3,0-2.6-0.4-3.7-1c-1.3-0.6-1.6-2.3-0.7-3.8c0.5-0.7,0.7-1.5,0.6-2.4l1.6,0.3l0.7,0.4l0.9,2.7
	C38.9,63.9,39.2,65.2,39.2,66.5z"/>
<path class="st2" d="M35.8,85.9l-0.4-2.1c0.1-0.3-0.1-0.5-0.3-0.7c-0.6-4.2-0.8-8.5-0.7-12.8c0.3,0,0.6,0.2,0.7,0.6c0,0,0,0,0,0
	c0.3,7.1,0.7,14.2,3.8,20.8l-0.3,0.3C37.2,90.2,36.3,88.1,35.8,85.9z"/>
<path class="st2" d="M32.6,101.1c-1.1-2-0.5-4.1-0.7-6.2c-0.3-1.4,0.5-2.5,0.9-3.7c-0.1,3.3,0.3,6.6,0.5,9.9L32.6,101.1z"/>
<path class="st2" d="M28.9,63.8c-0.4,4.1-1.1,8.2-2.2,12.1c0.3-4.2,0.9-8.4,1.9-12.5L28.9,63.8z"/>
<path class="st2" d="M56.5,87.2c0.3,3.4-0.1,6.8-1.4,10h-0.3l-0.4-0.4c1.3-3.1,1-6.4,1.1-9.7L56.5,87.2z"/>
<path class="st11" d="M50.9,106.3c3.6,1,7.1,2.2,10.8,2.4v0.7c-3.8-0.1-7.6-1.1-11.1-2.7L50.9,106.3z"/>
<path class="st2" d="M34.5,36.1c0.9-2.5,1.4-5.2,2.6-7.6h0.5c-0.5,2.6-1.3,5.2-2.4,7.6L34.5,36.1z"/>
<path class="st14" d="M34,53l-1.7,1c0.3-1.3,1.2-2.3,2.5-2.7C35,52.1,34.1,52.4,34,53z"/>
<path class="st15" d="M39.2,66.5c-0.1-1.3-0.3-2.6-0.7-3.8h0.6c0.5,1.1,0.8,2.2,0.8,3.4C40.1,66.7,39.9,67.1,39.2,66.5z"/>
<path class="st2" d="M46.2,106.6c-1.5,0.1-2.9-0.5-4-1.5l4.3,1.2C46.4,106.4,46.3,106.5,46.2,106.6z"/>
<path class="st2" d="M34,53c0.1-0.6,1-0.9,0.7-1.7l1-0.4v1.7C35.3,53.3,34.6,53,34,53z"/>
<path class="st6" d="M40.3,70c-0.5-0.7-0.7-1.6-0.4-2.4c1,0.6,0.7,1.7,1,2.4L40.3,70z"/>
<path class="st14" d="M35.8,52.7V51c0.7,0.1,0.8,0.3,0.7,1.2C36.5,52.7,36.5,53.1,35.8,52.7z"/>
<path class="st6" d="M50,99.4c0-0.2,0-0.5,0-0.7c0.3-0.3,0.7-0.5,0.9,0S50.4,99.3,50,99.4z"/>
<path class="st8" d="M31.9,111.1c0,0.5,0.1,1.2-0.8,0.8L31.9,111.1z"/>
<path class="st6" d="M57.2,105.3c0.4-0.1,0.8,0,1,0.3C57.8,105.7,57.4,105.6,57.2,105.3z"/>
<path class="st6" d="M45.4,96.1l-0.2,0.3c0-0.1-0.1-0.2-0.1-0.3s0.1-0.2,0.1-0.3L45.4,96.1z"/>
<path class="st6" d="M58.2,105.6l0.7,0.1C58.7,106,58.4,105.9,58.2,105.6z"/>
<path class="st6" d="M54.8,97.3h0.3C55,97.5,54.9,97.5,54.8,97.3z"/>
<polygon class="st14" points="31.5,54.2 31.5,54.3 31.4,54.3 "/>
<path class="st15" d="M61.3,43c0.2,0,0.4,0.3,0.4,0.5c0,0,0,0,0,0L61.3,43z"/>
<path class="st15" d="M61,42.7c0.2,0,0.4,0.1,0.3,0.3C61.2,43,61,42.9,61,42.7C61,42.7,61,42.7,61,42.7z"/>
<path class="st9" d="M45.6,41.5l-0.4,0.1l0.2-0.3C45.5,41.3,45.5,41.4,45.6,41.5z"/>
<path class="st15" d="M39,61.6l0.1,0.5C39,62,38.9,61.8,39,61.6C39,61.6,39,61.6,39,61.6z"/>
<path class="st8" d="M23.6,63.8c-0.1,0.4-0.1,0.9-0.5,1.1c-0.1,0.2-0.1,0.5,0,0.7c0,0.2-0.1,0.4-0.1,0.6s-0.2,0.2-0.2,0.4
	c-0.1,3.3-1.4,6.3-2.3,9.4c-0.4,1.2-0.8,2.4-1.2,3.5c-0.1,0.3-0.2,0.6-0.4,0.9l-0.1,0.1l0,0.1c-0.9,1.8-1.7,3.6-2.3,5.5
	c-2.1,4.4-3.8,8.8-2.9,13.8c0,0.2,0,0.4-0.3,0.5c-2.4-3.6-2.3-7.5-1.6-11.5c0.9-4.8,3.2-9,5.5-13.2c2.2-3.8,4-7.8,5.6-11.9
	L23.6,63.8z"/>
<path class="st3" d="M17.4,88.7c0.2,1.2,0.2,2.4,0.1,3.5c-0.1,3.4,1,6.7,3,9.4c0.2,0.3,0.7,0.6,0.4,1c-0.3,0.2-0.7,0.3-1.1,0.1
	c-1.2-0.5-2.1-1.4-2.7-2.5c-1.6-2.8-1.3-5.7-0.7-8.7C16.4,90.5,16.8,89.5,17.4,88.7z"/>
<path class="st14" d="M13.4,100.3c0.3,0,0.3-0.2,0.3-0.5c-0.9-5,0.8-9.4,2.9-13.8c0.2,0.3,0.3,0.7,0.1,1c-1.1,2.6-1.6,5.4-1.6,8.3
	c0,2.3,0.1,4.6,1.8,6.4c0.2,0.2,0.4,0.5,0.2,0.8s-0.6,0.1-0.9,0C15,102,14.1,101.2,13.4,100.3z"/>
<path class="st13" d="M23.6,63.8l-0.7-0.1c1.1-4.3,1.8-8.6,2.3-13h0.5C25.5,55.1,24.8,59.5,23.6,63.8z"/>
<path class="st8" d="M131.6,146.4c-1.5-0.2-2.8-1.1-3.4-2.5c-0.5-1.6-0.8-3-2.7-3.4c-0.1-0.1-0.1-0.2-0.1-0.3
	c0.7-2.3-1.7-2.6-2.4-3.9c-1.1-1.9-3.2-2.4-4.4-4.2c-1.4-2.2-3.2-4.1-5.2-5.6c-1.1-0.8-1.6-2.4-3.3-2.4c-0.4,0-0.7-0.8-0.7-1.3
	c0-1.1-0.6-2.1-1.5-2.8c-2.1-1.8-3.2-4.4-5.7-5.9c-0.8-0.5-0.2-1.7-0.5-2.5c3.1,3.2,6.2,6.4,9.3,9.5c5,5.2,9.9,10.3,14.9,15.5
	c2.2,2.4,4,5,5.5,7.9C131.8,145,131.9,145.7,131.6,146.4z"/>
<path class="st3" d="M97.2,17.8c-0.5-1.1-1.2-2.1-2.1-2.9c-5-5.3-10.1-10.4-17.6-12.1c-3.2-0.9-6.7-1-10-0.3
	c-1.1,0.3-2.4-0.1-3.4,0.8c-0.1,0-0.2,0-0.3,0l-0.7-0.4c3.4-2.2,7.2-1.9,10.9-1.5c11.1,1.4,19.3,7.5,25.3,16.7
	c5.1,7.8,7,16.6,8,25.6h-0.6c-0.7-5.7-2-11.2-3.9-16.6c-0.2-0.6-0.6-1.2-0.9-1.9C100.7,22.6,99.2,20,97.2,17.8z"/>
<path class="st13" d="M106.6,43.7h0.6c1,6.3,1.5,12.7,3.1,18.9c0.2,0.9,0.5,1.9,0.8,2.8l-0.6,0.5c-1.1-2.3-1.3-4.8-1.8-7.3
	C107.9,53.7,107.1,48.7,106.6,43.7z"/>
<path class="st11" d="M37.8,25c-1.8,2.7-2.7,3-5,1.8c-0.6-0.3-1-0.9-1.2-1.6c1-2.8,2.5-5.3,4.4-7.5c1.1,1,1.9,2.2,3.3,2.8
	C39.2,22.2,37.6,23.3,37.8,25z"/>
<path class="st2" d="M113.2,70c-0.1-0.1-0.1-0.2-0.1-0.3C113.4,69.7,113.5,69.8,113.2,70z"/>
<path class="st2" d="M70.1,257.7c0.4,0.4,0.9,0.2,1.3,0c0.3,2.5,0.8,4.9,0.9,7.4c0.1,1.6,0.8,3.1,0.3,4.7c-0.5,0-0.8,0-0.8,0.6
	l-0.2,0.1c-0.8-3.5-0.8-7.2-1.4-10.8c0.6,0.1,0.3,0.8,1,1.2c-0.5-0.8,0.6-2-1.1-1.9C70.1,258.5,69.8,258.1,70.1,257.7z"/>
<path class="st1" d="M70.1,259c1.7-0.1,0.5,1.2,1.1,1.9c-0.7-0.4-0.4-1.1-1-1.2C69.9,259.5,69.9,259.3,70.1,259z"/>
<path class="st2" d="M70,256.6c0,0.1,0.1,0.2,0.1,0.2s-0.1,0.1-0.1,0.1L70,256.6z"/>
<path class="st4" d="M81.7,342.7l9.2,4.6l-0.3,0.3c-3.2-1.1-6.1-3.1-9.3-4.3L81.7,342.7z"/>
<path class="st4" d="M81.3,343.3c0,0.6-0.1,1.2-0.1,1.7C80.9,344.5,80.9,343.8,81.3,343.3z"/>
<path class="st4" d="M87.9,312.9l-0.6,0.1c-0.4-2.7-0.5-5.5-0.5-8.2c-0.2-8.4-0.9-16.8-1.1-25.3c0-1.8-0.2-3.7-0.3-5.5
	c-0.3-7.4-0.6-14.8-1.1-22.1c-0.3-4.3-0.5-8.6-0.7-12.9c-0.3-5.4-0.9-10.7-1.3-16.1c-0.3-3.2-0.4-6.4-0.8-9.6
	c-0.7-6.2-0.7-12.4-1.6-18.6c-0.5-3.7-0.9-7.5-1.5-11.2c-0.2-0.9-0.1-1.8,0.4-2.5c0.5,3.1,1,5.8,1.2,8.4c0.7,6.7,1.4,13.4,2.1,20.1
	c0.3,3.6,0.4,7.2,0.8,10.8c0.6,5.3,0.6,10.6,1.2,15.9c0.3,2.4,0.4,4.9,0.5,7.4c0.4,7.2,0.8,14.4,1.2,21.6c0.2,3.7,0.2,7.3,0.5,11
	c0.3,4.4,0.3,8.8,0.5,13.2C87.4,297.2,88.1,305.1,87.9,312.9z"/>
<path class="st4" d="M80,316.1h-0.7c-0.7-2.2-0.3-4.5-0.6-6.8c-0.9-6.5-1.6-13-2.3-19.5c0-0.2,0-0.3,0.3-0.5
	C78.2,298.1,79.3,307.1,80,316.1z"/>
<path class="st4" d="M65.8,174l0.7,0.7c0.1,5.8,0.2,11.6,0.4,17.5c0.1,0.6,0.1,1.3-0.2,1.8l-0.7,0.1c0-4.8-0.1-9.5-0.1-14.3
	C65.8,177.9,65.8,176,65.8,174z"/>
<path class="st4" d="M76.2,286.1c-1.6-7.6-1.8-15.4-2.7-23.1C74.9,270.6,75.8,278.3,76.2,286.1z"/>
<path class="st4" d="M68.6,233.1c0-0.2,0-0.5,0-0.7c1.1-1.1,1.3-0.1,1.4,0.7c0.3,3.9,1.4,7.6,1.8,11.5c0.1,1.3,1,2.5,0.1,4
	c-0.5-0.7-0.8-1.6-0.8-2.5c-0.6-4.1-1.2-8.2-1.8-12.3C69.3,233.4,69,233.1,68.6,233.1z"/>
<path class="st4" d="M72,249.2c1.1,4.1,1.6,8.4,1.6,12.7C72.2,257.8,72.4,253.5,72,249.2z"/>
<path class="st4" d="M66.1,201.1c0.3-2,1.9-2.6,2.9-3.4c1-0.8,2.1-1.5,3.2-2.2c0.3-0.2,0.7-0.6,1-0.1s-0.1,0.6-0.4,0.9
	C70.8,198.1,68.6,199.7,66.1,201.1z"/>
<path class="st4" d="M68.4,230.3c-0.4-1-0.5-2-0.5-3c0.8-0.1,1.3,0.4,1,1.1S70,230,68.4,230.3z"/>
<path class="st1" d="M71.8,270.4c0-0.6,0.4-0.7,0.8-0.6c0,0.3,0,0.6,0,1L71.8,270.4z"/>
<path class="st4" d="M65.8,201.3l0,0.1l-0.1-0.1l0.1-0.1L65.8,201.3z"/>
<path class="st12" d="M94.9,336.8c-1.7-0.3-3.1,0.6-4.7,1C91.7,336.3,93.2,335.9,94.9,336.8z"/>
<path class="st4" d="M91.4,339.7c1.3,0.8,2.4,1.8,3.5,2.9c-1.4-0.5-2.6-1.3-3.5-2.4L91.4,339.7z"/>
<path class="st12" d="M91.4,339.7v0.5l-3.8-2.8C89.4,337.5,90.2,338.9,91.4,339.7z"/>
<path class="st11" d="M90.7,347.6l0.3-0.3l3.7,1l-0.1,0.5C93.2,349,92,348.1,90.7,347.6z"/>
<path class="st11" d="M103.7,349.1c-1.1,0.6-2.5,0.6-3.6,0H103.7z"/>
<path class="st11" d="M95.7,348.8c0,0,0-0.1,0.1-0.1c0.7-0.4,1.4,0.2,2.1,0.2c0,0,0.1,0.3,0,0.3c-0.8,0.6-1.4-0.3-2.2,0.1
	L95.7,348.8z"/>
<path class="st11" d="M99,341.3c0,0.2,0,0.3-0.1,0.5c-0.7,0.2-1.4,0.1-2-0.1C97.6,341,98.4,341.3,99,341.3z"/>
<path class="st11" d="M99.3,349.1c0.1,0.3,0,0.4-0.2,0.4s-0.3-0.1-0.3-0.1c0-0.1,0.1-0.3,0.1-0.4L99.3,349.1z"/>
<path class="st2" d="M37.9,316.3c0-0.3-0.4-0.6-0.2-1c1.9,0.2,3.7,1.1,5.6,1.1l1.3,0.1c2.7,0.3,5.4,0,8-0.7H53h1.4v0.6
	C48.9,318.5,43.4,317.9,37.9,316.3z"/>
<path class="st7" d="M38.8,342.2c0.9-1,2-2,3.1-2.7l0.3,0.3c-0.9,1.1-2,2-3.3,2.6L38.8,342.2z"/>
<path class="st7" d="M44.3,338c-0.6,0.7-1.4,1.3-2.2,1.7l-0.3-0.3c0.5-0.8,1.2-1.4,2.1-1.7L44.3,338z"/>
<path class="st7" d="M38.9,342.4c-0.1,0.3-0.5,0.5-0.8,0.4c-0.1,0-0.2-0.2-0.2-0.2c0.1-0.4,0.5-0.3,0.8-0.4L38.9,342.4z"/>
<path class="st7" d="M44,337.7c0.2-0.3,0.6-0.6,0.8-0.4c0.2,0.2-0.2,0.5-0.4,0.7L44,337.7z"/>
<path class="st3" d="M28.2,348.8l-0.5-0.2L28.2,348.8z"/>
<path class="st3" d="M29.5,348.8c-0.1,0-0.2,0-0.3,0C29.3,348.7,29.4,348.7,29.5,348.8z"/>
<path class="st0" d="M81.4,150.5c0.6-2.3,1.6-4.4,3.1-6.2c0.5-0.5,1.3-0.6,1.8-0.1c0.1,0.1,0.2,0.2,0.3,0.4c0.7,0.9,1,2.1,0.8,3.2
	c-0.6,3.1-2.2,5.9-4.6,7.9c-0.4-0.5-1.1-0.6-1.1-1.4l0,0c1.1,0.1,1.6-1.3,1.5-1.4C82.5,152.2,83.4,150.2,81.4,150.5z"/>
<path class="st13" d="M81.7,154.3c-0.1,0.8,0.7,0.9,1.1,1.4c-1.1,1-1.5,2.6-3,3.1c-1.6-0.1-2.3,1.2-3.2,2.2c-1.3,0.1-1.7,1.7-3,1.7
	c1.8-2.2,3.4-4.6,4.9-7.1c0.8-1.3,1.5-2.7,2.3-4.1c0.4-0.1,1.2,0.3,0.7-0.7c0-0.1,0-0.2,0-0.4c2-0.3,1.1,1.7,1.8,2.5
	C83.4,153.1,82.9,154.4,81.7,154.3c0-0.2,0-0.5-0.4-0.5c0,0-0.1,0.1-0.1,0.1C81.2,154.3,81.5,154.3,81.7,154.3z"/>
<path class="st0" d="M45.8,147.7c-1.3,0.3-1.4,1.5-1.7,2.4c-0.8-0.3-0.9-1.1-1.3-1.7c-1-1.9-2.6-3.4-3-5.6c0,0-0.1-0.1-0.1-0.1
	c-0.1-0.9-0.6-2.1,0.3-2.7s1.6,0.6,2.1,1.3C43.6,143.3,44.8,145.4,45.8,147.7z"/>
<path class="st11" d="M66.9,155.2c-0.8,0.2-1.2-0.3-1.7-0.8c-4.6-4.3-8.9-8.9-12.8-13.9c-0.6-0.6-1.1-1.4-1.2-2.3
	c1.1,0.1,1.4,1.1,1.9,1.9c3.7,5,8,9.6,12.8,13.6c0.2,0.2,0.4,0.4,0.6,0.6C66.6,154.6,67.1,154.7,66.9,155.2z"/>
<path class="st0" d="M94.5,128.4c0.7-0.9,0.5-2.2,1.4-3.1c1.3,0.7,1.2,2.3,2.2,3.2s1.8,2.5,3,3.5c1,0.8,1.1,2,1.8,3
	c-0.7-0.6-0.6,0.7-1.3,0.5c0.6-2.5-2.1-1.9-2.9-3.2c-0.8-1.6-2.2-2.8-4-3.2C94.5,129,94.5,128.6,94.5,128.4z"/>
<path class="st11" d="M110.8,148.1c0.1-0.7,0.3-1.3,0.6-1.9l0.1,0.2l0.3,0.2l0.1-0.2l0,0c2.8-0.8,5.6-1.5,8.5-1.9
	c1.5-0.3,3-0.2,4.5,0.2c-2.2,0.7-4.6,0.7-6.8,1.2c-2.2,0.4-4.3,1.1-6.3,2.1C111.3,148,111,148.1,110.8,148.1z"/>
<path class="st11" d="M21.2,145.7c0.3,0.5,0.6,1,0.9,1.5c-1,0.6-1.9-0.2-2.8-0.5c-3.6-1.2-7.3-1.4-11-1.8c0-0.8,0.6-0.5,0.9-0.5
	c3.3-0.2,6.7,0.3,9.8,1.5c0.7,0.3,1.3,0.4,1.9-0.2L21.2,145.7z"/>
<path class="st11" d="M70.3,108.7c3.3-0.3,6.5-1.1,9.5-2.4c0.6-0.3,1.3-0.5,2-0.4c-1.7,1.6-3.8,2-5.9,2.6c-1.8,0.4-3.7,0.7-5.6,0.9
	L70.3,108.7z"/>
<path class="st13" d="M70.3,108.7v0.7c-2.8,0.6-5.8,0.6-8.6,0v-0.7C64.6,109.1,67.5,109.1,70.3,108.7z"/>
<path class="st12" d="M116,141.2c0.1,0.2,1-0.3,0.5,0.5c-1.9,1.2-4,2.2-4.8,4.6h-0.3l-0.1-0.2c0-0.2,0-0.4-0.3-0.5
	C112.2,143.6,114,142.4,116,141.2z"/>
<path class="st13" d="M15.3,141.2c-0.5-0.1-1-0.2-1.5-0.3c-0.5-0.1-1.4,0-1.3-0.7s1.1-0.9,1.7-0.7c1.1,0.3,2.4,0.4,3,1.6
	C16.5,141.3,15.9,140.4,15.3,141.2z"/>
<path class="st12" d="M38.5,124.9l-0.6-0.7c0-1.6,0.3-3.2,0.8-4.7C39,121.3,38.9,123.2,38.5,124.9z"/>
<path class="st11" d="M15.3,141.2c0.6-0.8,1.2,0.1,1.8-0.1c0.6,0.5,1.5,0.6,1.7,1.6l-0.1,0.6L15.3,141.2z"/>
<path class="st12" d="M18.8,143.3l0.1-0.6c1.2,0.5,2.2,1.4,2.8,2.6l-0.4,0.4l-0.3-0.1L18.8,143.3z"/>
<path class="st11" d="M39.5,115.5c0.6,1.1,0,2,0,3c0,0.3-0.2,0.6-0.5,0.5s-0.4-0.4-0.3-0.7C38.9,117.4,39.2,116.4,39.5,115.5z"/>
<path class="st11" d="M76.5,161c0.9-0.9,1.6-2.2,3.2-2.2c-0.7,1.2-2.1,1.6-2.9,2.7h-0.4C76.5,161.3,76.5,161.2,76.5,161z"/>
<path class="st11" d="M92.1,118.7h-0.5c-0.4-1.1-0.6-2.3-0.6-3.5C91.7,116.2,92.1,117.5,92.1,118.7z"/>
<path class="st0" d="M104.2,137c-1-0.2-1-1-1-1.7C103.9,135.6,104.3,136.3,104.2,137z"/>
<path class="st0" d="M81.4,150.8c0.5,1-0.3,0.6-0.7,0.7c0-0.3,0.2-0.6,0.6-0.7C81.3,150.8,81.3,150.8,81.4,150.8z"/>
<path class="st12" d="M48.5,156.4l0.4,0.4L48.5,156.4z"/>
<path class="st11" d="M109,172.7l-0.4-0.3l0.1-0.1L109,172.7L109,172.7z"/>
<path class="st11" d="M109,172.7c0,0,0.1,0,0.1,0.1c0,0,0,0.1,0,0.1L109,172.7L109,172.7z"/>
<path class="st4" d="M44.7,316.5l-1.3-0.1c0.4-8.1,0.1-16.1,0.4-24.2c0.3-7.5,0.2-15,0.3-22.5c0-3.3-0.2-6.6,0.1-9.8
	c0.6-6.3-0.1-12.5,0.4-18.8c0.4-4.2,0.1-8.5,0.2-12.7c0.3-6.3,0.3-12.6,0.7-18.9c0.4-6.6,1-13.2,1.7-19.8c0.1-2.4,0.6-4.9,1.3-7.2
	c0.7,1.6,0.1,2.9,0,4.1c-0.5,3.2-0.5,6.5-0.9,9.7c-0.8,6.9-1.1,13.8-1.5,20.7c-0.2,3.3-0.1,6.7-0.3,10c-0.4,6,0,12-0.4,18
	c-0.4,6.9-0.1,13.8-0.3,20.7c-0.1,3.2-0.3,6.3-0.3,9.5c0,9.4,0,18.7,0,28.1c0,2.8-0.2,5.6-0.3,8.4C44.3,313.3,45,314.8,44.7,316.5z"
	/>
<path class="st4" d="M53,315.7h-0.3c-0.3-4.6,0.6-9.2,0.9-13.8c0.1-2,0.2-4.1,0.3-6.1c0.2-3.1,0.6-6.1,0.5-9.3
	c0-1.2,0.2-2.3,0.6-3.5c0.7,1.1,0.4,2.3,0.4,3.4c-0.1,2.7-0.4,5.3-0.6,8c-0.5,5.4-0.5,10.8-1.3,16.2C53.2,312.3,53.8,314.1,53,315.7
	z"/>
<path class="st4" d="M59.4,238.4c-0.8,9.3-1.9,18.6-3,27.9C56.7,256.9,57.7,247.6,59.4,238.4z"/>
<path class="st4" d="M55.3,282.3c-0.3-5.1,0.8-10.1,0.9-15.1C56.8,272.3,55.9,277.3,55.3,282.3z"/>
<path class="st1" d="M82.1,176.9c-0.2-0.2-0.5-0.7-0.2-0.8s0.9-0.6,1.3,0L82.1,176.9z"/>
<path class="st3" d="M92.6,153.2c-0.1,0-0.1,0.3-0.3,0.1l0.2-0.2L92.6,153.2z"/>
<path class="st7" d="M63.5,205c0,0.1,0.2,0.2,0.2,0.2c-0.1,0.2-0.3,0.1-0.4,0L63.5,205z"/>
<path class="st13" d="M36.8,129.4c0.3,0.1,0.3,0.3,0,0.4V129.4z"/>
<path class="st1" d="M62.4,168.2H62l0,0c0-0.4,0-0.7,0.1-1c1.4-0.2,2.8-0.1,4.1,0.1v0.7L62.4,168.2z"/>
<path class="st6" d="M62,167.1c0,0.4,0,0.7-0.1,1c-0.4-0.3-0.2-0.7-0.3-1.1L62,167.1z"/>
<path class="st11" d="M97.2,17.8c2,2.2,3.6,4.7,4.7,7.5l-0.3,0.2c-1.2,1.1-2.5,1.9-4.1,1.3s-2.2-2.2-2.5-3.8
	c-0.1-0.7-0.2-1.5-0.3-2.2C94.5,19.1,96.2,18.7,97.2,17.8z"/>
<path class="st11" d="M38.2,26.8c0,0,0-0.1,0-0.2c0,0,0,0,0,0c1.4-1.5,1.8-3.5,2.8-5.2c0.1,0,0.2,0,0.3-0.1c2.2,0,3.5,2.1,2.9,4.9
	c-0.5,2.2-4.2,3.7-5.9,2.3C38.3,27.9,38.2,27.3,38.2,26.8z"/>
<path class="st11" d="M88.7,25.8c1-0.4,0.5-1.2,0.5-1.9s-0.8-1.5,0.1-1.9c1.1-0.4,2.1-0.8,3.3,0.5c1.1,1.3,1.9,2.9,2.3,4.6
	c0,0.2,0,0.4-0.1,0.6c-0.8,0.1-1,0.9-1.8,1.1c-1.5,0.3-2.7,0.6-3.1-1.3c-0.1-0.3-0.5-0.5-0.8-0.5C88.9,26.7,88.8,26.2,88.7,25.8z"/>
<path class="st11" d="M88.7,28.9c0,0.2,0,0.4,0,0.6c-0.3,0.6-0.9,0.5-1.4,0.6c-2.2,0.5-3.5-1.1-4.6-2.4c-0.8-1.1-0.7-2.6,0.2-3.6
	c0.6-0.9,1.7-0.8,2.4-1.4h0.3C86.6,24.7,87.6,26.8,88.7,28.9z"/>
<path class="st2" d="M85.5,22.7h-0.3C84.6,20.1,83,18,81.4,16c-2.9-3.6-6-7-10.1-9.2c-1.4-0.8-2.9-1.3-4.5-1.4
	c-0.5-0.1-1,0.2-1.6-0.6c2.2-0.3,4.5,0.1,6.5,1.1c6.4,3.6,10.7,9.2,14.3,15.4c0.2,0.4,0.3,0.9,0.3,1.3L85.5,22.7z"/>
<path class="st6" d="M94.8,27.8c0-0.2,0-0.4,0.1-0.6c0.4,0,0.8,0.2,0.9,0.6c1.4,5.2,2.9,10.3,4.3,15.6c-0.7,0-0.9-0.6-1-1
	c-1.7-4.4-2.5-9-4.2-13.4C94.8,28.5,94.8,28.1,94.8,27.8z"/>
<path class="st6" d="M64.4,28.5h-1.3c0-0.5,0-0.9-0.1-1.4c-0.4-2.9-0.5-5.9-0.2-8.9c0-0.2,0.3-0.4,0.7-0.6
	C63.6,21.3,63.9,24.9,64.4,28.5z"/>
<path class="st12" d="M64.8,29.2c0-0.4,1.6-0.1,0.5-1c-0.5-0.4-0.5-1.1,0.5-1.1c0.2,0,0.3,0,0.5,0c2.1-0.6,2.1-0.6,2,1.7
	c0,0.6,0.2,1.4-0.6,1.7c-0.7,0.4-1.7,0.2-2.1-0.6c-0.1-0.2-0.5-0.2-0.8-0.3C64.8,29.4,64.8,29.3,64.8,29.2z"/>
<path class="st6" d="M41,21.4c-1,1.7-1.4,3.7-2.8,5.2c-0.1-0.5,0.2-1.1-0.4-1.6c-0.2-1.7,1.3-2.9,1.5-4.5h1.3L41,21.4z"/>
<path class="st12" d="M63.1,27.1c0,0.5,0,1,0.1,1.4s0.6,0.6,0.3,1l-0.4,0.3l0,0c-1-0.2-2.7,0.8-2.8-1.4c0-1.1,0.2-2.1,1.8-1.5
	C62.4,27.1,62.7,27.2,63.1,27.1z"/>
<path class="st6" d="M85.5,22.7h0.8c0.8,0.7,1.5,1.6,2.1,2.5l0.2,0.3c0,0.1,0,0.3,0,0.4c0.1,0.4,0.2,0.8,0.4,1.2L89,28.9
	c-0.1,0-0.2,0-0.3,0C87.6,26.8,86.6,24.7,85.5,22.7z"/>
<path class="st2" d="M41,21.4l-0.3-0.8c0.7-2.1,2.3-3.5,3.8-5c-0.9,2-2.3,3.7-3.1,5.7C41.2,21.4,41.1,21.4,41,21.4z"/>
<path class="st6" d="M58.9,36.8h-0.7c-1.2-1.9-1.7-4.1-1.5-6.3C57.3,32.7,58.6,34.6,58.9,36.8z"/>
<path class="st12" d="M75.5,26.6c0.8-0.3,1.6-0.1,2.2,0.5c0.5,0.5,0,1-0.1,1.4c-0.1,0.7-1.2,0.3-1.4,1c-0.6-0.5-0.8-1-0.1-1.7
	C77.1,26.8,75.1,27.4,75.5,26.6z"/>
<path class="st11" d="M48.1,28.8c-0.8-0.2-1.2-0.6-1.2-1.1c0-0.9,0.8-1.4,1.4-1.7c0.5-0.3,0.8,0.3,0.8,0.7
	C49.2,27.5,48.1,27.9,48.1,28.8z"/>
<path class="st6" d="M64.8,29.2c0,0.1,0,0.2,0,0.3c0.1,1.9,1.2,3.6,1.4,5.5c-0.6,0.1-0.7-0.4-0.9-0.8c-0.5-1.6-1.5-3.2-1-5
	L64.8,29.2z"/>
<path class="st6" d="M38.2,26.8c0,0.6,0,1.1,0.1,1.7l-0.7,0.1h-0.5C37.5,27.9,37.4,27.1,38.2,26.8z"/>
<path class="st14" d="M106.3,81c-0.2-0.1-0.4-0.4-0.3-0.7C106.4,80.4,106.8,80.5,106.3,81z"/>
<path class="st11" d="M88.6,25.4l-0.2-0.3c0.2-0.1,0.3-0.4,0.5-0.2S88.8,25.3,88.6,25.4z"/>
<path class="st12" d="M63.4,29.9v0.3l-0.3,0.2c0-0.2-0.1-0.3-0.1-0.5l0,0L63.4,29.9z"/>
<polygon class="st9" points="67.5,40.3 67.5,40.3 67.5,40.3 67.6,40.3 67.5,40.3 "/>
<path class="st1" d="M55.6,54.3c0.3,2.2,0.6,4.3-0.5,6.4c-0.5-1.6-1.1-1.6-2.2-0.4c-0.9,0.9-3.9,0.5-4.2-0.6s-0.9-1.4-1.7-1.3
	c-1,0.2-0.3,1.3-0.6,1.9c-1.4-2.8-1.1-5.5,0.7-8.4c-2.6,1-4.5,2.1-4.9,4.7c0,0.4,0.3,0.8-0.1,1.2c-1.8-0.6-2.3-2.6-3.8-3.5
	c0.9-0.9,2.1,0.4,2.7-0.8c0.2-0.4-0.1-0.9-0.7-1.4c1.3,0.2,2.6-0.3,3.4-1.2c3.3-3.1,8.5-3.5,11.5-0.9c0.1,0.1,1.4,0.5,0,0.8
	c-0.3-0.3-0.8-0.4-1-0.1s0.4,0.2,0.6,0.4c1.5,1.8,1.5,1.8,1,2.9c0-0.2-0.1-0.3-0.3-0.2C55.5,53.9,55.6,54.1,55.6,54.3z"/>
<path class="st8" d="M42.2,56.5c0.4-2.6,2.3-3.7,4.9-4.7c-1.8,2.9-2.1,5.6-0.7,8.4c-0.1,0.6,0.5,1,0.7,1.5c0.6,1.4,2.2,1.4,3.2,2.3
	c-2.9,0-5.5-0.5-6.9-3.5c-0.4-1-0.6-2.1-0.7-3.1C42.6,57.1,42.7,56.7,42.2,56.5z"/>
<path class="st15" d="M50.3,64.1c-1-0.9-2.6-0.9-3.2-2.3c-0.2-0.5-0.8-0.9-0.7-1.5c0.3-0.6-0.5-1.7,0.6-1.9c0.8-0.1,1.4,0.3,1.7,1.3
	s3.4,1.5,4.2,0.6c1.1-1.2,1.7-1.2,2.2,0.4C54.3,62.9,52.2,63.4,50.3,64.1z"/>
<path class="st10" d="M97.2,59.9c0.3,1.3,1.7,2.1,1.5,3.7c-0.3,2-2.1,3.3-4.1,3c-0.3-0.1-0.7-0.1-1-0.3c-1.1-0.5-0.6-1.9-0.2-2.9
	c0.1-0.2,0.2-0.5,0.4-0.7l0,0C95.1,61.9,95.6,60.3,97.2,59.9z"/>
<path class="st10" d="M62.7,64c0.5-0.9,0-2.4,1.4-2.9c0.4-0.2,2,2.1,1.9,2.8c-0.1,1-1,1.8-2,1.8C63,65.8,62.9,64.8,62.7,64z"/>
<path class="st15" d="M97.2,59.9c-1.6,0.4-2.1,2.1-3.4,2.9c0.7-3.2,4.2-5.4,6.3-3.7C99.1,59.5,98,59.1,97.2,59.9z"/>
<path class="st6" d="M64.5,73.5c-2.4,0.4-4.8-0.2-6.8-1.5c-0.4-0.2-0.8-0.5-0.4-1.1c0.1-0.2,0.4-0.3,0.6-0.1c0.1,0,0.1,0.1,0.1,0.1
	C59.6,72.9,62,72.8,64.5,73.5z"/>
<path class="st15" d="M70.9,72.7c-1.2,0.8-2.7,1-4.1,0.6l3.6-1.1C70.4,72.5,70.6,72.7,70.9,72.7z"/>
<path class="st12" d="M37,59.6l-1.6-0.3c-0.3,0-0.7-0.1-1-0.1s-1.2,0.3-1.2-0.4s0.8-0.8,1.5-0.6C35.6,58.2,36.5,58.8,37,59.6z"/>
<path class="st2" d="M70.9,72.7c-0.3,0-0.6-0.1-0.5-0.5c0.7-0.4,1.6-0.5,2-1.4c0.1-0.3,0.4-0.4,0.6-0.3c0.1,0,0.1,0.1,0.2,0.1
	c0.4,0.4,0.1,0.7-0.2,1C72.4,72.1,71.7,72.5,70.9,72.7z"/>
<path class="st15" d="M93.8,62.7c-0.1,0.2-0.2,0.5-0.4,0.7C93.5,63.1,93.5,62.8,93.8,62.7z"/>
<path class="st1" d="M67.5,40.3L67.5,40.3c-0.2-0.2-0.1-0.3,0.1-0.4L67.5,40.3z"/>
<path class="st1" d="M90.4,105.2l0.4-0.5L90.4,105.2z"/>
<path class="st14" d="M96.5,88.7c-0.2-0.1-0.4-0.2-0.4-0.3c-0.1-0.3,0.1-0.4,0.4-0.4c0.1,0,0.3,0.1,0.3,0.3
	C96.8,88.4,96.6,88.5,96.5,88.7z"/>
<path class="st15" d="M109.4,85.2c0,0.2,0,0.5-0.4,0.5c0,0-0.1-0.1-0.1-0.1C108.9,85.2,109.1,85.2,109.4,85.2L109.4,85.2z"/>
<path class="st14" d="M102.5,95.7c0,0,0,0.1,0,0.1c0,0-0.1,0-0.1,0c0,0,0-0.1,0-0.1S102.5,95.7,102.5,95.7z"/>
<path class="st15" d="M82.8,62c-0.2-1.2,1-1.8,1.2-2.7c0.1-0.2,0.3-0.3,0.6-0.2c0.4,0.2,0.2,0.6,0.3,0.9c0,0.1,0,0.2-0.1,0.3
	c-0.2,0.2-0.3,0.5-0.3,0.7c0,0.2,0.1,0.5-0.2,0.6c-0.2,0-0.5,0.2-0.5,0.4l0,0L82.8,62L82.8,62z"/>
<path class="st6" d="M82.8,62h1.1c-0.3,0.4-0.5,0.8-1.1,0.9L82.8,62z"/>
<path class="st6" d="M84.5,61.1c0-0.3,0.1-0.5,0.3-0.7C84.9,60.7,84.9,60.9,84.5,61.1z"/>
<path class="st6" d="M83.8,62.1c0.1-0.2,0.3-0.4,0.5-0.4C84.3,61.9,84.1,62.1,83.8,62.1z"/>
<path class="st6" d="M79.7,62.4l-0.1,0.1L79.7,62.4L79.7,62.4z"/>
<path class="st6" d="M63.4,29.9h-0.4l0.4-0.3V29.9z"/>
<path class="st14" d="M25.7,89.7c-0.3,1.6-0.4,3.2-0.3,4.9c-0.9,1-2.2,0.5-3.2,0.5c-0.6,0-1.1,0.2-1.6,0.2c0.2-1.6-1.2-3.4,0.4-5
	c0.5-0.5-0.9-1.3-0.1-2.2c0.5,0.3,0.2,1,0.8,1.3c0.2,0.1,0.4,0.3,0.6,0.5C23.3,88,24.6,90.5,25.7,89.7z"/>
<path class="st13" d="M23,65.6c-0.1-0.2-0.1-0.5,0-0.7C23.8,65.1,23.2,65.3,23,65.6z"/>
<path class="st14" d="M24.5,88.1c0-0.1,0.1-0.2,0.1-0.3s0.2,0.1,0.3,0.1s-0.1,0.2-0.1,0.3S24.6,88.1,24.5,88.1z"/>
<path class="st2" d="M18.8,80.4c0.1-0.3,0.2-0.6,0.4-0.9C19.1,79.8,19.2,80.2,18.8,80.4z"/>
<path class="st13" d="M22.6,66.5c0.1-0.1,0.2-0.2,0.2-0.4C22.8,66.3,22.7,66.4,22.6,66.5z"/>
<path class="st1" d="M38.5,92.1l0.3-0.3c0.1,0.3,0.2,0.7,0.4,1C38.7,92.8,38.6,92.5,38.5,92.1z"/>
<path class="st14" d="M35.1,83.1c0.2,0.2,0.3,0.4,0.3,0.7c-0.5-0.3-0.9,1.1-1.3,0.1C33.8,83.2,34.5,83.1,35.1,83.1z"/>
<path class="st14" d="M30.8,82.2c-0.6,0.1-1-0.2-1.5-0.4c0.2-0.6,0.6-0.4,0.9-0.3S30.8,81.7,30.8,82.2z"/>
<path class="st14" d="M33,83.3c0.3,0.1,0.3,0.3,0.3,0.5s0,0.5-0.3,0.5s-0.3-0.3-0.3-0.5S32.7,83.3,33,83.3z"/>
<path class="st0" d="M81.7,154.3c-0.2,0-0.5,0-0.5-0.4c0-0.1,0.1-0.1,0.1-0.1C81.7,153.8,81.7,154.1,81.7,154.3L81.7,154.3z"/>
<path class="st3" d="M111.4,146.3h0.3l-0.1,0.2L111.4,146.3z"/>
<path class="st9" d="M54.8,51.2c-0.2-0.2-0.7-0.2-0.6-0.4s0.7-0.2,1,0.1L54.8,51.2z"/>
<path class="st9" d="M55.6,54.3c0-0.1-0.1-0.4,0-0.4c0.2-0.1,0.2,0.1,0.3,0.2C55.7,54.2,55.7,54.2,55.6,54.3z"/>
</svg>
